<?xml version="1.0" encoding="UTF-8" standalone="no"?>
<!-- Created with Inkscape (http://www.inkscape.org/) -->
<svg
   xmlns:dc="http://purl.org/dc/elements/1.1/"
   xmlns:cc="http://web.resource.org/cc/"
   xmlns:rdf="http://www.w3.org/1999/02/22-rdf-syntax-ns#"
   xmlns:svg="http://www.w3.org/2000/svg"
   xmlns="http://www.w3.org/2000/svg"
   xmlns:xlink="http://www.w3.org/1999/xlink"
   xmlns:sodipodi="http://sodipodi.sourceforge.net/DTD/sodipodi-0.dtd"
   xmlns:inkscape="http://www.inkscape.org/namespaces/inkscape"
   width="482"
   height="444"
   id="svg2"
   sodipodi:version="0.32"
   inkscape:version="0.45.1"
   version="1.0"
   sodipodi:docbase="C:\Dokumente und Einstellungen\Bernd\Desktop\BOMBERMAAAN TRUNK\images\blocksize_32\backgrounds"
   sodipodi:docname="background-title.svg"
   inkscape:output_extension="org.inkscape.output.svg.inkscape">
  <defs
     id="defs4">
    <linearGradient
       id="linearGradient3213">
      <stop
         id="stop3215"
         offset="0"
         style="stop-color:#ffffff;stop-opacity:1;" />
      <stop
         id="stop3217"
         offset="1"
         style="stop-color:#c8c5e1;stop-opacity:1;" />
    </linearGradient>
    <linearGradient
       id="linearGradient3193">
      <stop
         id="stop3195"
         offset="0"
         style="stop-color:#4d9b61;stop-opacity:1;" />
      <stop
         id="stop3197"
         offset="1"
         style="stop-color:#2e7640;stop-opacity:1;" />
    </linearGradient>
    <linearGradient
       id="linearGradient3167">
      <stop
         id="stop3169"
         offset="0"
         style="stop-color:#96b39d;stop-opacity:1;" />
      <stop
         style="stop-color:#82b690;stop-opacity:1;"
         offset="0.32949233"
         id="stop3173" />
      <stop
         id="stop3175"
         offset="0.72920436"
         style="stop-color:#4dc96d;stop-opacity:1;" />
      <stop
         style="stop-color:#61ff8a;stop-opacity:1;"
         offset="0.90185183"
         id="stop3177" />
      <stop
         id="stop3171"
         offset="1"
         style="stop-color:#59c875;stop-opacity:1;" />
    </linearGradient>
    <linearGradient
       id="linearGradient3146">
      <stop
         style="stop-color:#3331a4;stop-opacity:1;"
         offset="0"
         id="stop3148" />
      <stop
         style="stop-color:#7ab2d7;stop-opacity:1;"
         offset="1"
         id="stop3150" />
    </linearGradient>
    <linearGradient
       inkscape:collect="always"
       xlink:href="#linearGradient3146"
       id="linearGradient3152"
       x1="202.71391"
       y1="83.983177"
       x2="273.60159"
       y2="407.33054"
       gradientUnits="userSpaceOnUse" />
    <linearGradient
       inkscape:collect="always"
       xlink:href="#linearGradient3167"
       id="linearGradient3165"
       x1="-31.794626"
       y1="400.16415"
       x2="502.43027"
       y2="400.16415"
       gradientUnits="userSpaceOnUse" />
    <radialGradient
       inkscape:collect="always"
       xlink:href="#linearGradient3193"
       id="radialGradient3191"
       cx="243.6396"
       cy="382.58453"
       fx="243.6396"
       fy="382.58453"
       r="275.45981"
       gradientTransform="matrix(1,0,0,0.4776347,0,199.84888)"
       gradientUnits="userSpaceOnUse" />
    <radialGradient
       inkscape:collect="always"
       xlink:href="#linearGradient3213"
       id="radialGradient3211"
       cx="235.71799"
       cy="329.51627"
       fx="235.71799"
       fy="329.51627"
       r="75.287956"
       gradientTransform="matrix(1,0,0,0.6617881,-48.502103,77.867931)"
       gradientUnits="userSpaceOnUse" />
    <radialGradient
       inkscape:collect="always"
       xlink:href="#linearGradient3193"
       id="radialGradient2196"
       gradientUnits="userSpaceOnUse"
       gradientTransform="matrix(1,0,0,0.4776347,0,171.84888)"
       cx="243.6396"
       cy="382.58453"
       fx="243.6396"
       fy="382.58453"
       r="275.45981" />
    <linearGradient
       inkscape:collect="always"
       xlink:href="#linearGradient3167"
       id="linearGradient2198"
       gradientUnits="userSpaceOnUse"
       x1="-31.794626"
       y1="400.16415"
       x2="502.43027"
       y2="400.16415"
       gradientTransform="translate(0,-28)" />
    <radialGradient
       inkscape:collect="always"
       xlink:href="#linearGradient3213"
       id="radialGradient2200"
       gradientUnits="userSpaceOnUse"
       gradientTransform="matrix(1,0,0,0.6617881,-48.502103,49.867931)"
       cx="235.71799"
       cy="329.51627"
       fx="235.71799"
       fy="329.51627"
       r="75.287956" />
    <linearGradient
       inkscape:collect="always"
       xlink:href="#linearGradient3146"
       id="linearGradient2202"
       gradientUnits="userSpaceOnUse"
       x1="202.71391"
       y1="83.983177"
       x2="273.60159"
       y2="407.33054"
       gradientTransform="translate(0,-28)" />
  </defs>
  <sodipodi:namedview
     id="base"
     pagecolor="#ffffff"
     bordercolor="#666666"
     borderopacity="1.0"
     inkscape:pageopacity="0.0"
     inkscape:pageshadow="2"
     inkscape:zoom="0.80408885"
     inkscape:cx="194.5887"
     inkscape:cy="228.02234"
     inkscape:document-units="px"
     inkscape:current-layer="layer1"
     width="482px"
     height="444px"
     inkscape:window-width="825"
     inkscape:window-height="687"
     inkscape:window-x="1524"
     inkscape:window-y="121" />
  <metadata
     id="metadata7">
    <rdf:RDF>
      <cc:Work
         rdf:about="">
        <dc:format>image/svg+xml</dc:format>
        <dc:type
           rdf:resource="http://purl.org/dc/dcmitype/StillImage" />
      </cc:Work>
    </rdf:RDF>
  </metadata>
  <g
     inkscape:groupmode="layer"
     id="layer2"
     inkscape:label="Sky"
     style="display:inline">
    <rect
       style="fill:url(#linearGradient2202);fill-opacity:1;stroke:none;stroke-width:20;stroke-miterlimit:4;stroke-dasharray:none;stroke-opacity:0.74678111;display:inline"
       id="rect2172"
       width="513.17834"
       height="505.59973"
       x="-14.074511"
       y="-51.85585"
       rx="0"
       ry="0" />
  </g>
  <g
     inkscape:groupmode="layer"
     id="layer3"
     inkscape:label="Mountain"
     style="display:inline">
    <path
       style="fill:url(#radialGradient2200);fill-opacity:1;fill-rule:evenodd;stroke:none;stroke-width:1px;stroke-linecap:butt;stroke-linejoin:miter;stroke-opacity:1;display:inline"
       d="M 111.92793,299.73733 C 116.08053,301.32441 122.67449,296.85134 129.33894,293.51912 C 137.44079,289.46819 135.7614,291.45851 138.04445,282.32632 C 139.18588,277.76058 146.74995,280.32081 146.74995,269.88989 C 146.74995,261.06202 155.50148,266.06692 159.18639,258.69709 C 162.8646,251.34068 157.91333,248.4591 164.16097,243.77337 C 167.63778,241.16576 170.37918,228.13943 170.37918,223.87507 C 170.37918,214.03071 175.35376,218.10118 175.35376,226.36236 C 175.35376,230.06941 177.85167,238.84127 179.08469,243.77337 C 180.18967,248.1933 190.27748,245.67146 190.27748,257.45345 C 190.27748,263.30834 200.22663,255.83264 200.22663,266.15896 C 200.22663,274.01099 201.08591,276.1081 208.93214,276.1081 C 219.32338,276.1081 217.13903,280.08545 220.12493,286.05725 C 223.41866,292.64471 238.33028,280.52912 241.26687,292.27547 C 242.47145,297.09379 249.48478,300.27422 251.21602,307.1992 C 251.80228,309.54423 253.70331,311.34467 254.94695,313.41741 C 256.09552,315.33169 259.09243,315.07561 261.16517,315.9047 C 268.09334,318.67597 246.24145,315.9047 238.77959,315.9047 C 231.96121,315.9047 224.94424,315.63261 218.88129,317.14835 C 211.47711,318.99939 205.93753,316.47192 202.71392,312.17377 C 199.85846,308.36649 190.64113,306.9792 186.54655,305.95555 C 177.24304,303.62968 177.90101,310.8102 175.35376,315.9047 C 174.18251,318.2472 157.29273,314.80946 156.6991,314.66106 C 149.92922,312.96859 150.50514,309.68648 141.77538,309.68648 C 133.664,309.68648 129.88527,311.87181 128.0953,304.71191 C 124.93517,292.07139 121.11373,301.57449 111.92793,299.73733 z "
       id="path3203" />
  </g>
  <g
     inkscape:groupmode="layer"
     id="layer4"
     inkscape:label="Hills"
     style="display:inline">
    <path
       style="fill:url(#linearGradient2198);fill-opacity:1;fill-rule:evenodd;stroke:none;stroke-width:1px;stroke-linecap:butt;stroke-linejoin:miter;stroke-opacity:1;display:inline"
       d="M -16.167368,319.63562 C -9.284605,308.92615 19.082751,308.09875 32.211806,304.19108 C 45.340862,300.28341 66.049303,290.15042 70.94709,305.49197 C 75.844877,320.83352 104.31568,304.52192 117.82725,299.20108 C 131.33883,293.88024 151.1277,296.00689 159.18639,278.59539 C 167.24507,261.18389 181.26596,291.17251 193.34621,298.59927 C 205.42647,306.02603 223.10311,302.13835 234.99335,310.81685 C 246.88359,319.49535 277.70575,314.93233 293.22597,300.88476 C 308.7462,286.83719 318.9038,311.36914 333.2965,309.68648 C 347.6892,308.00383 346.01196,319.39796 356.29849,326.77154 C 366.58502,334.14513 390.14454,322.79968 405.42783,310.93013 C 427.04482,299.78808 501.88185,291.61573 502.43028,320.77044 C 490.80323,361.83257 507.02212,409.1459 485.70286,470.18777 C 394.64138,470.23879 109.3719,471.46539 -29.515759,470.96898 C -35.491087,424.90615 -29.257487,365.11895 -16.167368,319.63562 z "
       id="path3156"
       sodipodi:nodetypes="czzzzzzzzzccccc" />
  </g>
  <g
     inkscape:label="Green"
     inkscape:groupmode="layer"
     id="layer1"
     style="display:inline">
    <path
       style="fill:url(#radialGradient2196);fill-opacity:1;fill-rule:evenodd;stroke:#ffffff;stroke-width:2;stroke-linecap:butt;stroke-linejoin:miter;stroke-miterlimit:4;stroke-dasharray:none;stroke-opacity:1"
       d="M -14.923724,353.21401 C -8.872874,359.44266 -5.5992215,361.91952 6.2182183,361.91952 C 13.663489,361.91952 6.1806082,374.35595 16.167368,374.35595 C 26.888683,374.35595 27.029603,382.66791 38.552954,385.54875 C 43.344081,386.74653 55.185072,384.18892 59.694896,383.06146 C 73.596835,379.58598 80.046361,385.78046 82.080482,397.98518 C 83.402666,405.91829 91.101626,402.95976 99.491493,402.95976 C 107.92261,402.95976 117.07675,402.87263 121.87708,400.47247 C 125.38693,398.71755 132.31483,370.09216 139.28809,397.98518 C 140.77573,403.93576 145.08947,410.00478 150.48088,415.3962 C 159.25993,424.17524 170.58475,410.43188 171.62283,404.2034 C 173.68948,391.8035 180.14435,401.35921 186.54655,402.95976 C 194.85893,405.03785 205.2225,405.44705 213.90671,405.44705 C 218.46329,405.44705 228.26408,408.10366 232.56136,409.17798 C 242.73392,411.72112 233.77903,424.1017 248.72873,424.1017 C 258.37043,424.1017 259.25913,419.95184 261.16517,410.42162 C 262.50607,403.71712 264.82217,393.30632 266.13974,388.03604 C 268.54061,378.43255 286.00811,395.37815 287.28169,400.47247 C 289.67223,410.03464 298.61176,409.17798 307.17998,409.17798 C 327.36152,409.17798 314.09006,397.92916 329.56557,385.54875 C 336.97312,379.62271 338.67791,365.26675 340.75836,356.94494 C 341.94137,352.2129 366.07913,354.45766 369.36217,354.45766 C 378.89677,354.45766 388.43137,354.45766 397.96597,354.45766 C 407.46455,354.45766 404.18419,337.95574 404.18419,332.07207 C 404.18419,329.15241 395.69334,324.22521 394.23504,318.39199 C 391.92151,309.13787 397.05602,305.25031 404.18419,303.46827 C 413.87848,301.04469 413.02533,296.54893 415.37698,305.95555 C 416.23602,309.3917 417.86427,312.58832 419.10791,315.9047 C 419.18679,316.11503 436.16995,313.26514 441.4935,334.55936 C 443.72931,343.5026 440.4564,348.44599 446.46807,354.45766 C 457.03255,365.02213 460.14815,348.19963 460.14815,343.26486 C 460.14815,330.08441 457.66087,320.44745 457.66087,307.1992 C 457.66087,297.00879 466.58051,286.48553 461.3918,276.10811 C 457.57166,268.46783 447.32236,272.84211 442.73714,263.67167 C 439.16428,256.52594 444.17722,247.30787 446.46807,245.01701 C 450.82455,240.66053 460.09789,252.47887 466.36637,252.47887 C 471.74988,253.08983 469.93058,234.61523 478.19585,229.17009 C 492.14613,219.97967 516.43133,222.61587 518.59941,232.58058 C 516.33434,298.10228 514.13004,390.91862 514.86848,456.43644 C 347.83518,462.56186 136.19472,514.08646 -31.091092,463.8983 C -32.285858,429.55475 -28.535963,392.84243 -26.116517,358.18859 C -26.116517,354.8563 -18.333078,354.57775 -14.923724,353.21401 z "
       id="path3179"
       sodipodi:nodetypes="csssssssssssssssssssssssssssssssssscsccccc" />
  </g>
</svg>
