<?xml version="1.0" encoding="UTF-8" standalone="no"?>
<!-- Created with Inkscape (http://www.inkscape.org/) -->
<svg
   xmlns:dc="http://purl.org/dc/elements/1.1/"
   xmlns:cc="http://creativecommons.org/ns#"
   xmlns:rdf="http://www.w3.org/1999/02/22-rdf-syntax-ns#"
   xmlns:svg="http://www.w3.org/2000/svg"
   xmlns="http://www.w3.org/2000/svg"
   xmlns:sodipodi="http://sodipodi.sourceforge.net/DTD/sodipodi-0.dtd"
   xmlns:inkscape="http://www.inkscape.org/namespaces/inkscape"
   width="464.14285"
   height="195.57143"
   id="svg2"
   sodipodi:version="0.32"
   inkscape:version="0.46"
   inkscape:output_extension="org.inkscape.output.svg.inkscape"
   version="1.0">
  <defs
     id="defs4" />
  <sodipodi:namedview
     id="base"
     pagecolor="#ffffff"
     bordercolor="#666666"
     borderopacity="1.0"
     inkscape:pageopacity="0.0"
     inkscape:pageshadow="2"
     inkscape:zoom="2.8"
     inkscape:cx="142.62135"
     inkscape:cy="98.215783"
     inkscape:document-units="px"
     inkscape:current-layer="layer1"
     showgrid="false"
     inkscape:window-width="1033"
     inkscape:window-height="831"
     inkscape:window-x="199"
     inkscape:window-y="99" />
  <metadata
     id="metadata7">
    <rdf:RDF>
      <cc:Work
         rdf:about="">
        <dc:format>image/svg+xml</dc:format>
        <dc:type
           rdf:resource="http://purl.org/dc/dcmitype/StillImage" />
      </cc:Work>
    </rdf:RDF>
  </metadata>
  <g
     inkscape:label="Ebene 1"
     inkscape:groupmode="layer"
     id="layer1"
     transform="translate(-112.21429,-36.005039)">
    <path
       style="fill:none;fill-rule:evenodd;stroke:#6b0000;stroke-width:7.69999981;stroke-linecap:butt;stroke-linejoin:miter;stroke-miterlimit:4;stroke-dasharray:none;stroke-opacity:1"
       d="M 147.14285,77.719322 C 150.32436,88.917183 161.30521,151.62504 160.95264,167.38791 C 160.87464,170.87517 193.0288,164.15263 203.28187,158.47831 C 220.64067,148.87149 229.46927,137.02871 227.91578,116.74619 C 226.22091,94.617894 223.10686,71.2596 193.52914,66.918086 C 181.17726,65.105037 145.24895,71.053416 147.14285,77.719322 z"
       id="path2400"
       sodipodi:nodetypes="csssss" />
    <path
       style="fill:none;fill-rule:evenodd;stroke:#6b0000;stroke-width:7;stroke-linecap:butt;stroke-linejoin:miter;stroke-miterlimit:4;stroke-dasharray:none;stroke-opacity:1"
       d="M 265.37578,154.54391 C 270.39284,154.46392 275.26677,150.49785 279.15795,147.88335 C 283.24939,145.1343 282.2177,141.37152 279.53083,137.77856 C 277.78018,135.43755 261.75875,125.09711 266.19215,123.3385 C 281.96012,117.08378 280.51175,93.284242 268.20234,82.655909 C 258.91275,74.634987 247.51493,73.983747 237.79216,75.054288 C 232.40695,75.647236 219.89558,78.742893 217.84221,83.873027 C 213.8298,93.897628 213.80484,148.74545 221.61136,155.70821 C 225.042,158.76805 235.57084,160.21354 241.56463,157.77304 C 246.51174,155.75873 245.88115,149.0187 244.89153,145.04279 C 242.70328,136.25121 245.98973,131.53398 251.57058,141.3364 C 255.91484,148.96683 254.44651,154.71818 265.37578,154.54391 z"
       id="path2402"
       sodipodi:nodetypes="csssssssssss" />
    <path
       style="fill:none;fill-rule:evenodd;stroke:#6b0000;stroke-width:5;stroke-linecap:butt;stroke-linejoin:miter;stroke-miterlimit:4;stroke-dasharray:none;stroke-opacity:1"
       d="M 240,100.93361 C 239.47283,106.86367 238.56008,116.94926 241.78572,117.36219 C 249.19635,118.31086 251.85643,111.45628 250.35714,105.21932 C 249.14627,100.18219 240.3036,97.51852 240,100.93361 z"
       id="path2404"
       sodipodi:nodetypes="csss" />
    <path
       style="fill:none;fill-rule:evenodd;stroke:#6b0000;stroke-width:7;stroke-linecap:butt;stroke-linejoin:miter;stroke-miterlimit:4;stroke-dasharray:none;stroke-opacity:1"
       d="M 275.44031,102.02385 C 267.93357,117.44992 265.64847,125.76817 266.96663,139.74275 C 268.059,151.32355 285.63063,153.68058 288.52613,147.94202 C 291.42163,142.20345 292.20356,139.97574 298.88412,139.8156 C 305.56468,139.65546 306.09042,149.84885 312.32098,150.42565 C 317.42876,150.89851 324.90159,148.31923 328.24398,144.63698 C 332.74908,139.67379 325.28034,122.00853 324.30224,117.87181 C 322.54698,110.44821 318.23272,97.024491 314.28571,89.862182 C 310.8811,83.684104 301.51885,79.193615 295.01105,80.481763 C 287.66918,81.935005 278.66202,95.403349 275.44031,102.02385 z"
       id="path2406"
       sodipodi:nodetypes="cszzssssss" />
    <path
       style="fill:none;fill-rule:evenodd;stroke:#6b0000;stroke-width:5.5;stroke-linecap:butt;stroke-linejoin:miter;stroke-miterlimit:4;stroke-dasharray:none;stroke-opacity:1"
       d="M 297.88469,107.2118 C 294.52194,106.31075 286.93064,119.63014 292.53346,121.92938 C 297.67604,124.03974 303.27919,122.80528 304.1393,119.58677 C 305.05959,116.14308 301.98494,108.31046 297.88469,107.2118 z"
       id="path2408"
       sodipodi:nodetypes="csss" />
    <path
       style="fill:none;fill-rule:evenodd;stroke:#6b0000;stroke-width:7;stroke-linecap:butt;stroke-linejoin:miter;stroke-miterlimit:4;stroke-dasharray:none;stroke-opacity:1"
       d="M 317.14285,83.076469 C 319.01581,76.178587 323.83813,71.419607 331.35161,72.860689 C 346.80049,75.823777 342.07399,90.225645 342.25611,99.749142 C 342.32824,103.52107 349.18455,92.523977 352.38926,91.555282 C 361.79784,88.711328 355.04236,112.99327 357.99705,110.04479 C 361.51725,106.53199 365.61703,96.354299 371.65112,94.902877 C 377.71562,93.444141 390.29219,101.43823 391.89431,107.62954 C 394.32998,117.04205 377.20773,127.61977 373.58042,131.01216 C 366.26382,137.85488 358.12975,146.03291 347.6092,140.16619 C 341.12763,136.55178 343.42032,119.07 340.55969,121.6429 C 339.19241,122.87266 330.62368,134.53196 325.4369,134.68278 C 314.33221,135.00567 309.12383,128.52873 310.57976,114.4688 C 311.75187,103.14977 314.03659,94.516444 317.14285,83.076469 z"
       id="path2410"
       sodipodi:nodetypes="cssssssssssss" />
    <path
       style="fill:none;fill-rule:evenodd;stroke:#6b0000;stroke-width:7;stroke-linecap:butt;stroke-linejoin:miter;stroke-miterlimit:4;stroke-dasharray:none;stroke-opacity:1"
       d="M 374.9497,139.59085 C 363.4159,129.49371 334.43494,134.14002 326.56562,146.59821 C 313.06054,167.97855 324.9827,195.94065 348.27933,203.42743 C 357.38914,206.35503 372.47883,200.36108 374.85506,195.21944 C 376.2892,192.11628 377.78746,201.95218 384.90788,198.76988 C 388.91177,196.98044 395.32568,193.34805 393.92367,186.61739 C 392.1899,178.29406 386.28727,156.59633 380.46019,163.33329 C 375.38638,169.19937 365.33293,167.01581 366.28523,170.46114 C 368.62673,178.93238 354.83867,184.27737 348.42504,177.5028 C 338.11745,166.61513 348.40307,149.03524 362.52636,158.65236 C 367.76877,162.22213 367.66141,160.42773 376.09219,153.72043 C 381.70537,149.25474 378.65755,142.83685 374.9497,139.59085 z"
       id="path2412"
       sodipodi:nodetypes="csssssssssss" />
    <path
       style="fill:none;fill-rule:evenodd;stroke:#6b0000;stroke-width:7;stroke-linecap:butt;stroke-linejoin:miter;stroke-miterlimit:4;stroke-dasharray:none;stroke-opacity:1"
       d="M 443.92857,183.07647 C 443.29368,159.97738 437.07016,142.43259 420.2011,130.99499 C 401.88349,118.57524 389.7601,150.41312 388.10237,160.84179 C 386.71594,169.56377 382.37491,181.3611 388.62956,188.23197 C 392.77076,192.78117 402.83297,196.6773 405.10967,190.45674 C 408.14493,182.16361 416.83735,175.34782 423.0236,189.80679 C 425.52914,195.66293 444.16861,191.80988 443.92857,183.07647 z"
       id="path2414"
       sodipodi:nodetypes="cssssss" />
    <path
       style="fill:none;fill-rule:evenodd;stroke:#6b0000;stroke-width:7;stroke-linecap:butt;stroke-linejoin:miter;stroke-miterlimit:4;stroke-dasharray:none;stroke-opacity:1"
       d="M 466.42857,158.07647 C 470.99921,160.06405 456.74265,185.85269 478.21428,189.14789 C 491.53156,191.19167 494.51255,169.51628 494.64285,155.21932 C 494.71617,147.37589 493.33421,134.75943 486.78571,129.14789 C 475.22792,119.2438 464.89958,138.84217 463.57142,135.93361 C 460.80384,129.87285 453.3921,113.39804 440,123.79075 C 430.367,131.26627 407.41054,184.76013 432.85715,177.71933 C 442.41662,175.07432 445.42185,150.2714 448.57143,151.6479 C 452.5268,153.37656 446.43634,166.54814 454.01522,168.79075 C 462.53399,171.31148 462.23867,156.25446 466.42857,158.07647 z"
       id="path2418"
       sodipodi:nodetypes="csssssssss" />
    <path
       style="fill:none;fill-rule:evenodd;stroke:#6b0000;stroke-width:7;stroke-linecap:butt;stroke-linejoin:miter;stroke-miterlimit:4;stroke-dasharray:none;stroke-opacity:1"
       d="M 529.28572,97.719325 C 518.37604,95.836547 499.04333,98.987436 488.08163,99.518046 C 467.72761,100.5033 470.15726,115.46875 471.8504,126.36701 C 475.93304,152.64583 462.03184,192.589 492.12595,193.83915 C 506.2343,194.42523 525.2888,194.46312 536.47764,193.37043 C 549.24493,192.12359 551.5389,166.28532 539.7181,168.93162 C 536.65572,169.61719 510.67678,172.16685 508.62319,165.84425 C 506.03799,157.88491 515.74487,158.38074 527.75703,156.81312 C 536.90512,155.61926 539.51242,145.12084 532.11618,138.58872 C 525.02103,132.32251 498.52733,142.14733 503.08695,129.57764 C 507.3067,117.94489 533.73565,131.95023 537.31124,117.67081 C 540.19784,106.14294 538.80996,99.363006 529.28572,97.719325 z"
       id="path2420"
       sodipodi:nodetypes="csssssssssss" />
    <path
       style="fill:none;fill-rule:evenodd;stroke:#6b0000;stroke-width:6.39041519;stroke-linecap:butt;stroke-linejoin:miter;stroke-miterlimit:4;stroke-dasharray:none;stroke-opacity:1"
       d="M 178.13393,102.19259 C 180.57668,110.49339 181.54512,119.84435 182.5224,128.27424 C 194.4602,126.55526 198.41976,120.59383 195.38565,110.40796 C 192.84278,101.87124 188.26357,98.28475 178.13393,102.19259 z"
       id="path3197"
       sodipodi:nodetypes="ccsc" />
    <path
       style="fill:none;fill-rule:evenodd;stroke:#6b0000;stroke-width:5.5;stroke-linecap:butt;stroke-linejoin:miter;stroke-miterlimit:4;stroke-dasharray:none;stroke-opacity:1"
       d="M 414.71154,154.30731 C 411.34879,153.40626 405.77302,164.38579 411.50316,166.34631 C 418.98073,168.9047 420.24977,165.23471 419.71615,161.68228 C 419.03323,157.13597 418.81179,155.40597 414.71154,154.30731 z"
       id="path3284"
       sodipodi:nodetypes="csss" />
  </g>
</svg>
