<?xml version="1.0" encoding="UTF-8" standalone="no"?>
<!-- Created with Inkscape (http://www.inkscape.org/) -->
<svg
   xmlns:dc="http://purl.org/dc/elements/1.1/"
   xmlns:cc="http://web.resource.org/cc/"
   xmlns:rdf="http://www.w3.org/1999/02/22-rdf-syntax-ns#"
   xmlns:svg="http://www.w3.org/2000/svg"
   xmlns="http://www.w3.org/2000/svg"
   xmlns:xlink="http://www.w3.org/1999/xlink"
   xmlns:sodipodi="http://sodipodi.sourceforge.net/DTD/sodipodi-0.dtd"
   xmlns:inkscape="http://www.inkscape.org/namespaces/inkscape"
   width="298"
   height="139"
   id="svg2"
   sodipodi:version="0.32"
   inkscape:version="0.45.1"
   inkscape:output_extension="org.inkscape.output.svg.inkscape"
   sodipodi:docname="Title.svg"
   sodipodi:docbase="C:\Dokumente und Einstellungen\Bernd\Desktop\BOMBERMAAAN TRUNK\images"
   version="1.0">
  <defs
     id="defs4">
    <linearGradient
       id="linearGradient4185">
      <stop
         style="stop-color:#ff3d00;stop-opacity:1;"
         offset="0"
         id="stop4187" />
      <stop
         id="stop5166"
         offset="0.61946905"
         style="stop-color:#fff903;stop-opacity:1;" />
      <stop
         style="stop-color:#ff1702;stop-opacity:1;"
         offset="1"
         id="stop4189" />
    </linearGradient>
    <linearGradient
       inkscape:collect="always"
       xlink:href="#linearGradient4185"
       id="linearGradient5182"
       x1="-69.134834"
       y1="-565.52008"
       x2="59.813393"
       y2="252.47296"
       gradientUnits="userSpaceOnUse"
       spreadMethod="pad"
       gradientTransform="matrix(9.9674963e-2,0,0,9.9674963e-2,117.11281,818.4416)" />
    <linearGradient
       inkscape:collect="always"
       xlink:href="#linearGradient4185"
       id="linearGradient5242"
       x1="544.73236"
       y1="262.01746"
       x2="598.0473"
       y2="786.24768"
       gradientUnits="userSpaceOnUse"
       gradientTransform="matrix(9.9674963e-2,0,0,9.9674963e-2,117.96718,818.4416)" />
  </defs>
  <sodipodi:namedview
     id="base"
     pagecolor="#ffffff"
     bordercolor="#666666"
     borderopacity="1.0"
     inkscape:pageopacity="0.0"
     inkscape:pageshadow="2"
     inkscape:zoom="1"
     inkscape:cx="145.03198"
     inkscape:cy="86.519202"
     inkscape:document-units="px"
     inkscape:current-layer="layer1"
     inkscape:window-width="1276"
     inkscape:window-height="749"
     inkscape:window-x="-3"
     inkscape:window-y="38"
     width="298px"
     height="139px" />
  <metadata
     id="metadata7">
    <rdf:RDF>
      <cc:Work
         rdf:about="">
        <dc:format>image/svg+xml</dc:format>
        <dc:type
           rdf:resource="http://purl.org/dc/dcmitype/StillImage" />
      </cc:Work>
    </rdf:RDF>
  </metadata>
  <g
     inkscape:label="Title"
     inkscape:groupmode="layer"
     id="layer1"
     transform="translate(-5.9688057,-769.93408)">
    <path
       style="opacity:1;fill:url(#linearGradient5182);fill-opacity:1;fill-rule:evenodd;stroke:#000000;stroke-width:2.99025035;stroke-linecap:butt;stroke-linejoin:miter;stroke-miterlimit:4;stroke-dasharray:none;stroke-opacity:1"
       d="M 108.56835,777.24063 C 100.67951,777.12912 97.821354,781.57625 95.927864,784.72051 C 87.802626,780.04314 81.644236,782.97466 75.138206,785.23343 C 66.23455,778.16418 48.357156,778.58863 40.468888,784.76765 C 26.477317,799.81047 17.92844,823.74933 12.027309,843.31226 C 8.4528569,857.17681 16.81828,865.45823 27.618303,869.26032 C 38.418327,873.06242 46.868356,873.4074 57.410796,869.29085 C 67.953239,865.17432 72.843955,859.60227 81.447402,850.25457 C 95.897206,854.95748 104.49536,847.01127 108.39637,838.37259 C 114.4437,832.21491 117.42423,821.38716 114.83838,812.88807 C 119.78945,816.89901 120.94775,815.28416 124.34192,812.56074 C 124.0964,824.12142 121.84512,832.99371 134.28607,833.69372 C 137.87114,842.92245 161.73408,843.92014 170.55042,836.28213 C 181.64215,838.33958 191.5527,839.53315 202.6221,835.88547 C 208.59668,842.27015 214.57997,840.53619 216.36275,838.77837 C 217.66042,837.4989 221.86729,836.00263 218.41186,823.10328 C 224.65213,827.93866 236.60249,837.68699 241.55732,831.42126 C 246.40063,825.29654 242.21132,817.22235 230.49339,810.70565 C 245.1237,797.70576 234.63101,777.74248 223.0314,775.93095 C 211.43179,774.11942 202.6319,777.1043 198.04216,782.06845 C 193.13448,779.36986 172.79408,780.46721 168.90101,785.74233 C 158.85908,776.76405 143.99791,781.78384 141.7918,785.0281 C 127.0975,766.77398 121.96504,789.34425 120.80526,795.71805 C 119.65273,789.87872 116.45719,777.35214 108.56835,777.24063 z "
       id="path2170"
       sodipodi:nodetypes="ccccczzccccccczczczccccz" />
    <path
       style="opacity:1;fill:url(#linearGradient5242);fill-opacity:1;fill-rule:evenodd;stroke:#000000;stroke-width:2.99025035;stroke-linecap:butt;stroke-linejoin:miter;stroke-miterlimit:4;stroke-dasharray:none;stroke-opacity:1"
       d="M 75.712531,897.99494 C 80.103009,907.5433 89.851615,903.22554 94.205068,898.53936 C 98.55853,893.85317 103.63587,888.22061 107.99218,877.32273 C 107.50713,887.49901 103.80524,893.9578 109.11116,896.08962 C 114.67106,898.32347 118.82018,889.28774 125.17017,880.76534 C 118.42,904.70851 130.95758,904.94606 136.13528,899.92093 C 138.45594,897.66868 141.26581,892.7457 144.17205,887.90568 C 149.81747,889.5985 151.95094,888.94776 156.69526,887.8852 C 148.04868,909.31477 165.60075,902.96928 171.93922,897.60658 C 175.72049,894.40742 177.1907,889.46701 178.6099,887.72374 C 184.2193,888.65825 186.76242,887.8796 190.9466,886.69687 C 181.65339,909.75709 207.43263,908.65183 212.66322,886.8136 C 216.49387,886.87803 217.58964,887.46403 223.92896,886.87142 C 219.88997,895.43913 223.06913,900.74936 226.61061,902.91968 C 234.01881,907.45962 242.56171,893.05439 247.70366,886.09321 C 246.86513,898.21263 249.54934,905.35695 261.0421,904.49903 C 272.5525,903.63977 273.47161,880.09243 285.76807,878.31556 C 298.06452,876.53868 301.93482,856.96185 293.4335,852.7482 C 276.54447,844.37721 262.53826,872.67403 261.52123,877.43093 C 263.11109,852.61769 256.06591,843.83098 240.06852,871.68407 C 247.32422,848.59039 240.10583,845.18286 233.11271,846.05985 C 225.84208,846.97165 213.85818,862.79472 209.40508,872.22499 C 211.22026,866.8135 217.54067,846.59036 204.71006,846.12503 C 191.59467,845.65971 178.66781,863.97211 174.50733,869.01886 C 176.16252,863.39662 177.77764,850.57856 169.12676,846.83692 C 160.47589,843.09528 148.26133,859.84196 142.88307,868.74276 C 143.97248,853.08751 139.69632,851.84611 136.16904,851.23287 C 132.7786,850.64342 125.66871,853.45487 121.18762,864.75505 C 123.40624,838.70275 105.2631,851.98098 97.901539,859.89868 C 90.539967,867.81639 71.20516,888.19238 75.712531,897.99494 z "
       id="path2174"
       sodipodi:nodetypes="czczczccccccczczzscczczczczczz" />
    <g
       id="g3189"
       transform="matrix(9.9674959e-2,0,0,9.9674959e-2,117.96717,818.44156)">
      <path
         style="fill:none;fill-rule:evenodd;stroke:#000000;stroke-width:30;stroke-linecap:butt;stroke-linejoin:miter;stroke-miterlimit:4;stroke-dasharray:none;stroke-opacity:1"
         d="M -435.43094,-337.68118 C -346.59197,-276.04154 -373.60456,-132.16823 -457.14286,-44.780675 C -324.3903,72.928799 -282.91166,196.12751 -391.36858,346.91788"
         id="path3156"
         sodipodi:nodetypes="ccc" />
      <path
         id="path3158"
         d="M -224.82915,-340.89171 C -139.55237,-305.78708 -31.145317,45.558996 -100.17176,208.46991"
         style="fill:none;fill-rule:evenodd;stroke:#000000;stroke-width:30;stroke-linecap:butt;stroke-linejoin:miter;stroke-miterlimit:4;stroke-dasharray:none;stroke-opacity:1"
         sodipodi:nodetypes="cc" />
      <path
         style="fill:none;fill-rule:evenodd;stroke:#000000;stroke-width:30;stroke-linecap:butt;stroke-linejoin:miter;stroke-miterlimit:4;stroke-dasharray:none;stroke-opacity:1"
         d="M 193.7088,-381.79531 C 231.99218,-355.0027 242.46917,-301.91033 244.51506,-271.23862 C 251.86043,-161.11779 252.07984,63.132467 209.29936,129.77841 C 198.06408,147.2814 171.17306,152.00452 154.219,152.05166"
         id="path3160"
         sodipodi:nodetypes="cssc" />
      <path
         id="path3162"
         d="M 484.56411,-347.96451 C 584.15952,-277.7268 600.70662,-191.729 531.42857,-81.923532 C 599.42724,-9.4429585 616.9511,118.64912 511.57857,190.91861"
         style="fill:none;fill-rule:evenodd;stroke:#000000;stroke-width:30;stroke-linecap:butt;stroke-linejoin:miter;stroke-miterlimit:4;stroke-dasharray:none;stroke-opacity:1"
         sodipodi:nodetypes="ccc" />
      <path
         id="path3164"
         d="M 793.28338,-369.29912 C 817.5063,-361.32987 855.01964,-337.15618 866.90355,-292.39061 C 910.00756,-153.00755 756.43699,-179.38979 715.52588,-173.02871 C 766.92801,-177.12193 811.17099,-163.14092 820,-110.49496 C 826.45696,-25.000434 774.63552,-9.0499794 705.71429,-13.352103 C 764.36408,-8.8228671 872.34891,-9.9654881 902.85714,58.076468 C 933.02084,125.35002 900.79294,158.52695 836.99286,178.81325"
         style="fill:none;fill-rule:evenodd;stroke:#000000;stroke-width:30;stroke-linecap:butt;stroke-linejoin:miter;stroke-miterlimit:4;stroke-dasharray:none;stroke-opacity:1"
         sodipodi:nodetypes="ccccczc" />
    </g>
    <g
       id="g3180"
       style="fill:#000000;fill-opacity:1"
       transform="matrix(9.9674959e-2,0,0,9.9674959e-2,117.96717,818.44156)">
      <path
         style="fill:#000000;fill-opacity:1;fill-rule:evenodd;stroke:#000000;stroke-width:1px;stroke-linecap:butt;stroke-linejoin:miter;stroke-opacity:1"
         d="M -682.93353,52.37386 C -633.78683,-1.0487406 -539.74443,-86.983263 -550.78916,-140.97888 C -561.83389,-194.9745 -631.80377,-218.36788 -697.8112,-130.30346 C -762.46984,-44.038544 -857.68051,107.76197 -845.41085,234.66712 C -833.10079,361.99018 -597.63276,338.79193 -549.07398,216.71742 C -501.48459,97.079886 -641.34709,61.412318 -682.93353,52.37386 z "
         id="path3166"
         sodipodi:nodetypes="czzzzc" />
      <path
         id="path3168"
         d="M -314.28571,-144.78067 C -385.72543,-116.7084 -346.59668,122.10447 -268.57143,100.93361 C -190.54618,79.762748 -240.40348,-173.81273 -314.28571,-144.78067 z "
         style="fill:#000000;fill-opacity:1;fill-rule:evenodd;stroke:#000000;stroke-width:1px;stroke-linecap:butt;stroke-linejoin:miter;stroke-opacity:1"
         sodipodi:nodetypes="czz" />
      <path
         id="path3170"
         d="M 387.83465,-84.690679 C 420.35928,-124.24912 468.78863,-197.52191 398.70642,-227.27783 C 332.23381,-255.50116 299.30256,-161.00879 283.80392,-113.36892 C 268.26901,-65.617578 265.19285,47.522667 330.69179,41.023607 C 396.19073,34.524547 427.44733,-37.042432 387.83465,-84.690679 z "
         style="fill:#000000;fill-opacity:1;fill-rule:evenodd;stroke:#000000;stroke-width:1px;stroke-linecap:butt;stroke-linejoin:miter;stroke-opacity:1"
         sodipodi:nodetypes="czzzc" />
      <path
         id="path3172"
         d="M 1029.8651,-150.28496 C 1050.9858,-167.63043 1085.474,-252.28103 1018.2265,-292.87213 C 941.43056,-324.11793 901.58386,-215.55417 924.33071,-156.02925 C 938.87778,-124.13779 1008.7444,-132.93949 1029.8651,-150.28496 z "
         style="fill:#000000;fill-opacity:1;fill-rule:evenodd;stroke:#000000;stroke-width:1px;stroke-linecap:butt;stroke-linejoin:miter;stroke-opacity:1"
         sodipodi:nodetypes="cccz" />
      <path
         id="path3174"
         d="M 344.45071,580.63363 C 387.65585,590.09865 416.50026,581.08639 451.0086,573.50577 C 484.42544,566.16493 478.27356,471.23368 454.16572,435.21933 C 430.48627,399.84495 301.24557,571.16861 344.45071,580.63363 z "
         style="fill:#000000;fill-opacity:1;fill-rule:evenodd;stroke:#000000;stroke-width:1px;stroke-linecap:butt;stroke-linejoin:miter;stroke-opacity:1"
         sodipodi:nodetypes="czzz" />
      <path
         sodipodi:nodetypes="czzz"
         style="fill:#000000;fill-opacity:1;fill-rule:evenodd;stroke:#000000;stroke-width:1px;stroke-linecap:butt;stroke-linejoin:miter;stroke-opacity:1"
         d="M 699.25734,556.6029 C 742.46248,566.06792 771.30689,557.05566 805.81523,549.47504 C 839.23207,542.1342 833.08019,447.20295 808.97235,411.1886 C 785.2929,375.81422 656.0522,547.13788 699.25734,556.6029 z "
         id="path2210" />
      <path
         id="path2212"
         d="M 1034.274,552.36218 C 1066.1705,561.8272 1083.7063,552.81494 1118.2146,545.23432 C 1151.6315,537.89348 1168.0968,442.96223 1143.989,406.94788 C 1120.3095,371.5735 1001.0761,542.51098 1034.274,552.36218 z "
         style="fill:#000000;fill-opacity:1;fill-rule:evenodd;stroke:#000000;stroke-width:1px;stroke-linecap:butt;stroke-linejoin:miter;stroke-opacity:1"
         sodipodi:nodetypes="czzz" />
    </g>
  </g>
</svg>
