<?xml version="1.0" encoding="UTF-8" standalone="no"?>
<!-- Created with Inkscape (http://www.inkscape.org/) -->
<svg
   xmlns:dc="http://purl.org/dc/elements/1.1/"
   xmlns:cc="http://web.resource.org/cc/"
   xmlns:rdf="http://www.w3.org/1999/02/22-rdf-syntax-ns#"
   xmlns:svg="http://www.w3.org/2000/svg"
   xmlns="http://www.w3.org/2000/svg"
   xmlns:xlink="http://www.w3.org/1999/xlink"
   xmlns:sodipodi="http://sodipodi.sourceforge.net/DTD/sodipodi-0.dtd"
   xmlns:inkscape="http://www.inkscape.org/namespaces/inkscape"
   width="343.51599"
   height="156.30069"
   id="svg2"
   sodipodi:version="0.32"
   inkscape:version="0.45.1"
   inkscape:output_extension="org.inkscape.output.svg.inkscape"
   sodipodi:docname="Title.svg"
   sodipodi:docbase="C:\Users\Bernd\Documents\Bombermaaan\subversion_trunk\images"
   version="1.0">
  <defs
     id="defs4">
    <linearGradient
       id="linearGradient4185">
      <stop
         style="stop-color:#ff3d00;stop-opacity:1;"
         offset="0"
         id="stop4187" />
      <stop
         id="stop5166"
         offset="0.61946905"
         style="stop-color:#fff903;stop-opacity:1;" />
      <stop
         style="stop-color:#ff1702;stop-opacity:1;"
         offset="1"
         id="stop4189" />
    </linearGradient>
    <linearGradient
       inkscape:collect="always"
       xlink:href="#linearGradient4185"
       id="linearGradient5182"
       x1="-69.134834"
       y1="-565.52008"
       x2="59.813393"
       y2="252.47296"
       gradientUnits="userSpaceOnUse"
       spreadMethod="pad"
       gradientTransform="matrix(0.1179046,0,0,0.1179046,133.75863,822.58743)" />
    <linearGradient
       inkscape:collect="always"
       xlink:href="#linearGradient4185"
       id="linearGradient5242"
       x1="544.73236"
       y1="262.01746"
       x2="598.0473"
       y2="786.24768"
       gradientUnits="userSpaceOnUse"
       gradientTransform="matrix(0.1179046,0,0,0.1179046,134.76925,822.58743)" />
  </defs>
  <sodipodi:namedview
     id="base"
     pagecolor="#ffffff"
     bordercolor="#666666"
     borderopacity="1.0"
     inkscape:pageopacity="0.0"
     inkscape:pageshadow="2"
     inkscape:zoom="1"
     inkscape:cx="105.68284"
     inkscape:cy="22.199242"
     inkscape:document-units="px"
     inkscape:current-layer="layer1"
     inkscape:window-width="1276"
     inkscape:window-height="669"
     inkscape:window-x="2"
     inkscape:window-y="-9"
     width="698.09px"
     height="1052.3622px" />
  <metadata
     id="metadata7">
    <rdf:RDF>
      <cc:Work
         rdf:about="">
        <dc:format>image/svg+xml</dc:format>
        <dc:type
           rdf:resource="http://purl.org/dc/dcmitype/StillImage" />
      </cc:Work>
    </rdf:RDF>
  </metadata>
  <g
     inkscape:label="Ebene 1"
     inkscape:groupmode="layer"
     id="layer1"
     transform="translate(-5.9688057,-769.93408)">
    <path
       style="opacity:1;fill:url(#linearGradient5182);fill-opacity:1;fill-rule:evenodd;stroke:#000000;stroke-width:3.53713965;stroke-linecap:butt;stroke-linejoin:miter;stroke-miterlimit:4;stroke-dasharray:none;stroke-opacity:1"
       d="M 123.65148,773.85125 C 114.22893,773.01444 110.93895,778.97981 108.69916,782.69912 C 99.087893,777.16631 91.803186,780.63398 84.107263,783.30585 C 73.57521,774.9437 52.428204,775.44578 43.097243,782.75489 C 33.766271,790.064 30.786117,798.7465 25.873807,810.56086 C 20.961541,822.37521 15.711579,838.49234 9.4539587,852.00677 C 3.1963834,865.5212 15.121155,878.20304 27.896404,882.7005 C 40.671654,887.19796 50.667116,887.60604 63.137672,882.73662 C 75.608231,877.8672 81.393415,871.27608 91.570353,860.21877 C 108.66289,865.7818 118.83357,856.38229 123.44805,846.16368 C 130.60137,838.87983 134.12701,826.07177 131.06823,816.01828 C 136.92482,820.76279 138.29495,818.85259 142.30989,815.63108 C 142.01947,829.30611 139.35645,839.80106 154.07273,840.62909 C 158.31348,851.54567 186.54073,852.72583 196.9695,843.6909 C 210.08981,846.12464 221.81291,847.5365 234.90679,843.2217 C 241.97408,850.77408 249.05165,848.72298 251.16049,846.64368 C 252.69549,845.1302 257.67176,843.36029 253.58435,828.10176 C 260.96591,833.82148 275.10189,845.3527 280.96291,837.94102 C 286.69202,830.69615 281.73652,821.14526 267.8755,813.43671 C 289.17979,801.48633 272.93018,774.58232 259.04877,772.30204 C 245.16736,770.02176 233.59517,774.57386 229.666,780.44591 C 217.85035,779.02154 199.62351,777.66793 195.01842,783.90783 C 183.13992,773.28751 165.56078,779.22537 162.9512,783.06298 C 144.81944,762.47034 139.4983,788.16851 138.1264,795.70801 C 136.76308,788.80073 132.89221,773.27826 123.65148,773.85125 z "
       id="path2170"
       sodipodi:nodetypes="ccczzzzzccccccczczczccccc" />
    <path
       style="opacity:1;fill:url(#linearGradient5242);fill-opacity:1;fill-rule:evenodd;stroke:#000000;stroke-width:3.53713965;stroke-linecap:butt;stroke-linejoin:miter;stroke-miterlimit:4;stroke-dasharray:none;stroke-opacity:1"
       d="M 84.786626,916.69042 C 91.196271,925.89772 101.51162,922.87764 106.66128,917.3344 C 111.81095,911.79116 117.81689,905.12846 122.96993,892.23745 C 122.39616,904.27487 117.9023,911.51474 124.29356,914.43663 C 130.62031,917.32903 135.77827,906.39075 143.28961,896.30968 C 135.3049,924.63183 150.13549,924.91284 156.26015,918.96866 C 159.00523,916.30449 162.329,910.48114 165.76676,904.75593 C 172.44468,906.75834 174.96834,905.98859 180.58036,904.7317 C 170.35239,930.08054 191.11458,922.57452 198.6123,916.23102 C 203.08513,912.44677 204.82423,906.60281 206.50298,904.5407 C 213.13829,905.64613 216.14653,904.72507 221.09595,903.32603 C 210.1031,930.60376 240.59713,929.29636 246.78434,903.46411 C 251.31558,903.54032 252.61176,904.2335 260.11048,903.5325 C 255.33281,913.66718 259.0934,919.9486 263.28259,922.51584 C 272.04567,927.8861 282.151,910.84629 288.23336,902.61197 C 287.24147,916.94792 290.41661,925.39887 304.01128,924.38404 C 317.62683,923.36764 318.71403,895.5137 333.2594,893.41185 C 347.80476,891.31001 352.38291,868.15275 342.32677,863.16846 C 322.3489,853.26649 305.78108,886.73855 304.57804,892.36544 C 306.45867,863.01408 298.12499,852.62036 279.20182,885.56753 C 287.78452,858.25023 279.24596,854.2195 270.97386,855.25688 C 262.37349,856.33543 248.19785,875.0524 242.93032,886.20738 C 245.07748,879.80618 252.55383,855.88441 237.37662,855.33398 C 221.86254,854.78355 206.57149,876.44512 201.65009,882.41488 C 203.60801,875.76438 205.51852,860.60201 195.28547,856.17606 C 185.05243,851.75011 171.85394,874.80961 164.24205,882.08828 C 165.5307,863.56982 160.47247,862.10139 156.30008,861.37599 C 152.28956,860.67873 140.62934,869.75437 138.57869,877.37126 C 141.20308,846.55423 119.74173,862.26092 111.0338,871.6267 C 102.32587,880.99248 78.454899,907.59505 84.786626,916.69042 z "
       id="path2174"
       sodipodi:nodetypes="czczczccccccczczzscczczczczczz" />
    <g
       id="g3189"
       transform="matrix(0.1179046,0,0,0.1179046,134.76926,822.58745)">
      <path
         style="fill:none;fill-rule:evenodd;stroke:#000000;stroke-width:30;stroke-linecap:butt;stroke-linejoin:miter;stroke-miterlimit:4;stroke-dasharray:none;stroke-opacity:1"
         d="M -434.10572,-339.0064 C -345.26675,-277.36676 -373.60456,-132.16823 -457.14286,-44.780675 C -324.3903,72.928799 -282.91166,196.12751 -391.36858,346.91788"
         id="path3156"
         sodipodi:nodetypes="ccc" />
      <path
         id="path3158"
         d="M -242.58715,-347.51782 C -112.32984,-309.52425 -43.015529,60.972152 -94.075727,200.78362"
         style="fill:none;fill-rule:evenodd;stroke:#000000;stroke-width:30;stroke-linecap:butt;stroke-linejoin:miter;stroke-miterlimit:4;stroke-dasharray:none;stroke-opacity:1"
         sodipodi:nodetypes="cc" />
      <path
         style="fill:none;fill-rule:evenodd;stroke:#000000;stroke-width:30;stroke-linecap:butt;stroke-linejoin:miter;stroke-miterlimit:4;stroke-dasharray:none;stroke-opacity:1"
         d="M 217.56283,-358.73641 C 254.6761,-319.19497 281.47104,166.66018 171.12859,152.36218"
         id="path3160"
         sodipodi:nodetypes="cc" />
      <path
         id="path3162"
         d="M 485.62429,-346.37424 C 609.08709,-263.63959 632.90889,-166.68279 531.42857,-81.923532 C 599.42724,-9.4429585 616.9511,118.64912 511.57857,190.91861"
         style="fill:none;fill-rule:evenodd;stroke:#000000;stroke-width:30;stroke-linecap:butt;stroke-linejoin:miter;stroke-miterlimit:4;stroke-dasharray:none;stroke-opacity:1"
         sodipodi:nodetypes="ccc" />
      <path
         id="path3164"
         d="M 802.85714,-359.21638 C 831.57802,-357.24441 862.61974,-319.0018 872.76669,-273.81084 C 882.08158,-232.32563 878.67919,-183.87327 734.28571,-176.20925 C 701.03377,-176.20925 693.83784,-176.20925 731.42857,-176.20925 C 737.14286,-176.20925 742.85714,-176.20925 748.57143,-176.20925 C 794.90769,-179.85404 817.01193,-155.88215 820,-110.49496 C 826.45696,-25.000434 774.63552,-9.0499794 705.71429,-13.352103 C 764.36408,-8.8228671 891.43214,10.177916 902.85714,58.076468 C 914.60091,107.31144 903.97348,163.82785 841.23358,176.69289"
         style="fill:none;fill-rule:evenodd;stroke:#000000;stroke-width:30;stroke-linecap:butt;stroke-linejoin:miter;stroke-miterlimit:4;stroke-dasharray:none;stroke-opacity:1"
         sodipodi:nodetypes="cscsccczc" />
    </g>
    <g
       id="g3180"
       style="fill:#000000;fill-opacity:1"
       transform="matrix(0.1179046,0,0,0.1179046,134.76926,822.58745)">
      <path
         style="fill:#000000;fill-opacity:1;fill-rule:evenodd;stroke:#000000;stroke-width:1px;stroke-linecap:butt;stroke-linejoin:miter;stroke-opacity:1"
         d="M -682.93353,52.37386 C -633.78683,-1.0487406 -539.74443,-86.983263 -550.78916,-140.97888 C -561.83389,-194.9745 -631.80377,-218.36788 -697.8112,-130.30346 C -762.46984,-44.038544 -857.68051,107.76197 -845.41085,234.66712 C -833.10079,361.99018 -597.63276,338.79193 -549.07398,216.71742 C -501.48459,97.079886 -641.34709,61.412318 -682.93353,52.37386 z "
         id="path3166"
         sodipodi:nodetypes="czzzzc" />
      <path
         id="path3168"
         d="M -314.28571,-144.78067 C -385.72543,-116.7084 -346.59668,122.10447 -268.57143,100.93361 C -190.54618,79.762748 -240.40348,-173.81273 -314.28571,-144.78067 z "
         style="fill:#000000;fill-opacity:1;fill-rule:evenodd;stroke:#000000;stroke-width:1px;stroke-linecap:butt;stroke-linejoin:miter;stroke-opacity:1"
         sodipodi:nodetypes="czz" />
      <path
         id="path3170"
         d="M 385.71429,-76.209246 C 418.23892,-115.76769 481.51078,-163.59618 411.42857,-193.3521 C 344.95596,-221.57543 315.5268,-127.82169 294.40571,-85.804267 C 273.28462,-43.786847 263.07249,56.0041 328.57143,49.50504 C 394.07037,43.00598 425.32697,-28.560999 385.71429,-76.209246 z "
         style="fill:#000000;fill-opacity:1;fill-rule:evenodd;stroke:#000000;stroke-width:1px;stroke-linecap:butt;stroke-linejoin:miter;stroke-opacity:1"
         sodipodi:nodetypes="czzzc" />
      <path
         id="path3172"
         d="M 1029.8651,-141.80353 C 1050.9858,-159.149 1085.474,-243.7996 1018.2265,-284.3907 C 941.43056,-315.6365 901.58386,-207.07274 924.33071,-147.54782 C 938.87778,-115.65636 1008.7444,-124.45806 1029.8651,-141.80353 z "
         style="fill:#000000;fill-opacity:1;fill-rule:evenodd;stroke:#000000;stroke-width:1px;stroke-linecap:butt;stroke-linejoin:miter;stroke-opacity:1"
         sodipodi:nodetypes="cccz" />
      <path
         id="path3174"
         d="M 344.45071,580.63363 C 387.65585,590.09865 416.50026,581.08639 451.0086,573.50577 C 484.42544,566.16493 478.27356,471.23368 454.16572,435.21933 C 430.48627,399.84495 301.24557,571.16861 344.45071,580.63363 z "
         style="fill:#000000;fill-opacity:1;fill-rule:evenodd;stroke:#000000;stroke-width:1px;stroke-linecap:butt;stroke-linejoin:miter;stroke-opacity:1"
         sodipodi:nodetypes="czzz" />
      <path
         sodipodi:nodetypes="czzz"
         style="fill:#000000;fill-opacity:1;fill-rule:evenodd;stroke:#000000;stroke-width:1px;stroke-linecap:butt;stroke-linejoin:miter;stroke-opacity:1"
         d="M 699.25734,556.6029 C 742.46248,566.06792 771.30689,557.05566 805.81523,549.47504 C 839.23207,542.1342 833.08019,447.20295 808.97235,411.1886 C 785.2929,375.81422 656.0522,547.13788 699.25734,556.6029 z "
         id="path2210" />
      <path
         id="path2212"
         d="M 1034.274,552.36218 C 1066.1705,561.8272 1083.7063,552.81494 1118.2146,545.23432 C 1151.6315,537.89348 1168.0968,442.96223 1143.989,406.94788 C 1120.3095,371.5735 1001.0761,542.51098 1034.274,552.36218 z "
         style="fill:#000000;fill-opacity:1;fill-rule:evenodd;stroke:#000000;stroke-width:1px;stroke-linecap:butt;stroke-linejoin:miter;stroke-opacity:1"
         sodipodi:nodetypes="czzz" />
    </g>
  </g>
</svg>
