<?xml version="1.0" encoding="UTF-8" standalone="no"?>
<!-- Created with Inkscape (http://www.inkscape.org/) -->
<svg
   xmlns:dc="http://purl.org/dc/elements/1.1/"
   xmlns:cc="http://web.resource.org/cc/"
   xmlns:rdf="http://www.w3.org/1999/02/22-rdf-syntax-ns#"
   xmlns:svg="http://www.w3.org/2000/svg"
   xmlns="http://www.w3.org/2000/svg"
   xmlns:xlink="http://www.w3.org/1999/xlink"
   xmlns:sodipodi="http://sodipodi.sourceforge.net/DTD/sodipodi-0.dtd"
   xmlns:inkscape="http://www.inkscape.org/namespaces/inkscape"
   width="343.51599"
   height="156.30069"
   id="svg2"
   sodipodi:version="0.32"
   inkscape:version="0.45.1"
   inkscape:output_extension="org.inkscape.output.svg.inkscape"
   sodipodi:docname="Title.svg"
   sodipodi:docbase="C:\Dokumente und Einstellungen\Bernd\Eigene Dateien\Bombermaaan\repository_trunk\images"
   version="1.0">
  <defs
     id="defs4">
    <linearGradient
       id="linearGradient4185">
      <stop
         style="stop-color:#ff3d00;stop-opacity:1;"
         offset="0"
         id="stop4187" />
      <stop
         id="stop5166"
         offset="0.61946905"
         style="stop-color:#fff903;stop-opacity:1;" />
      <stop
         style="stop-color:#ff1702;stop-opacity:1;"
         offset="1"
         id="stop4189" />
    </linearGradient>
    <linearGradient
       inkscape:collect="always"
       xlink:href="#linearGradient4185"
       id="linearGradient5182"
       x1="-69.134834"
       y1="-565.52008"
       x2="59.813393"
       y2="252.47296"
       gradientUnits="userSpaceOnUse"
       spreadMethod="pad"
       gradientTransform="matrix(0.1179046,0,0,0.1179046,133.75863,822.58743)" />
    <linearGradient
       inkscape:collect="always"
       xlink:href="#linearGradient4185"
       id="linearGradient5242"
       x1="544.73236"
       y1="262.01746"
       x2="598.0473"
       y2="786.24768"
       gradientUnits="userSpaceOnUse"
       gradientTransform="matrix(0.1179046,0,0,0.1179046,134.76925,822.58743)" />
  </defs>
  <sodipodi:namedview
     id="base"
     pagecolor="#ffffff"
     bordercolor="#666666"
     borderopacity="1.0"
     inkscape:pageopacity="0.0"
     inkscape:pageshadow="2"
     inkscape:zoom="0.98994949"
     inkscape:cx="469.7761"
     inkscape:cy="231.93568"
     inkscape:document-units="px"
     inkscape:current-layer="layer1"
     inkscape:window-width="1280"
     inkscape:window-height="952"
     inkscape:window-x="0"
     inkscape:window-y="45"
     width="698.09px"
     height="1052.3622px" />
  <metadata
     id="metadata7">
    <rdf:RDF>
      <cc:Work
         rdf:about="">
        <dc:format>image/svg+xml</dc:format>
        <dc:type
           rdf:resource="http://purl.org/dc/dcmitype/StillImage" />
      </cc:Work>
    </rdf:RDF>
  </metadata>
  <g
     inkscape:label="Ebene 1"
     inkscape:groupmode="layer"
     id="layer1"
     transform="translate(-5.9688057,-769.93408)">
    <path
       style="opacity:1;fill:url(#linearGradient5182);fill-opacity:1;fill-rule:evenodd;stroke:#000000;stroke-width:3.53713965;stroke-linecap:butt;stroke-linejoin:miter;stroke-miterlimit:4;stroke-dasharray:none;stroke-opacity:1"
       d="M 123.65148,773.85125 C 114.22893,773.01444 110.93895,778.97981 108.69916,782.69912 C 99.087893,777.16631 91.803186,780.63398 84.107263,783.30585 C 73.57521,774.9437 52.428204,775.44578 43.097243,782.75489 C 33.766271,790.064 30.786117,798.7465 25.873807,810.56086 C 20.961541,822.37521 15.711579,838.49234 9.4539587,852.00677 C 3.1963834,865.5212 15.121155,878.20304 27.896404,882.7005 C 40.671654,887.19796 50.667116,887.60604 63.137672,882.73662 C 75.608231,877.8672 81.393415,871.27608 91.570353,860.21877 C 108.66289,865.7818 118.83357,856.38229 123.44805,846.16368 C 130.60137,838.87983 134.12701,826.07177 131.06823,816.01828 C 136.92482,820.76279 138.29495,818.85259 142.30989,815.63108 C 142.01947,829.30611 139.35645,839.80106 154.07273,840.62909 C 158.31348,851.54567 186.54073,852.72583 196.9695,843.6909 C 210.08981,846.12464 221.81291,847.5365 234.90679,843.2217 C 241.97408,850.77408 249.05165,848.72298 251.16049,846.64368 C 252.69549,845.1302 257.67176,843.36029 253.58435,828.10176 C 260.96591,833.82148 275.10189,845.3527 280.96291,837.94102 C 286.69202,830.69615 281.73652,821.14526 267.8755,813.43671 C 289.17979,801.48633 272.93018,774.58232 259.04877,772.30204 C 245.16736,770.02176 233.59517,774.57386 229.666,780.44591 C 217.85035,779.02154 199.62351,777.66793 195.01842,783.90783 C 183.13992,773.28751 165.56078,779.22537 162.9512,783.06298 C 144.81944,762.47034 139.4983,788.16851 138.1264,795.70801 C 136.76308,788.80073 132.89221,773.27826 123.65148,773.85125 z "
       id="path2170"
       sodipodi:nodetypes="ccczzzzzccccccczczczccccc" />
    <path
       style="opacity:1;fill:url(#linearGradient5242);fill-opacity:1;fill-rule:evenodd;stroke:#000000;stroke-width:3.53713965;stroke-linecap:butt;stroke-linejoin:miter;stroke-miterlimit:4;stroke-dasharray:none;stroke-opacity:1"
       d="M 92.660453,890.07162 C 85.636797,897.01455 78.711922,915.31199 84.453293,919.85709 C 90.354873,924.52898 101.51162,922.87764 106.66128,917.3344 C 111.81095,911.79116 117.81689,905.12846 122.96993,892.23745 C 122.39616,904.27487 119.26167,909.53213 124.29356,914.43663 C 128.28698,918.32903 135.77827,906.39075 143.28961,896.30968 C 135.3049,924.63183 150.13549,924.91284 156.26015,918.96866 C 159.00523,916.30449 162.329,910.48114 165.76676,904.75593 C 172.44468,904.75834 174.30167,905.32192 180.58036,904.7317 C 170.35239,930.08054 191.11458,922.57452 198.6123,916.23102 C 203.08513,912.44677 204.82423,906.60281 206.50298,904.5407 C 207.63829,903.14613 215.14653,904.0584 221.09595,903.32603 C 210.1031,930.60376 240.59713,929.29636 246.78434,903.46411 C 251.31558,903.54032 252.61176,904.2335 260.11048,903.5325 C 255.33281,913.66718 259.0934,919.9486 263.28259,922.51584 C 272.04567,927.8861 282.151,910.84629 288.23336,902.61197 C 287.24147,916.94792 290.41661,925.39887 304.01128,924.38404 C 317.62683,923.36764 318.71403,895.5137 333.2594,893.41185 C 347.80476,891.31001 352.38291,868.15275 342.32677,863.16846 C 322.3489,853.26649 305.78108,886.73855 304.57804,892.36544 C 306.45867,863.01408 298.12499,852.62036 279.20182,885.56753 C 287.78452,858.25023 280.07929,855.7195 270.97386,855.25688 C 261.86843,854.79426 248.19785,875.0524 242.93032,886.20738 C 245.41081,876.13951 252.55383,855.88441 237.37662,855.33398 C 221.86254,854.78355 206.57149,876.44512 201.65009,882.41488 C 201.10801,876.93105 205.51852,860.60201 195.28547,856.17606 C 185.05243,851.75011 171.85394,874.80961 164.24205,882.08828 C 163.0307,861.06982 163.95337,862.7368 156.30008,861.37599 C 148.64681,860.01518 140.62934,869.75437 138.57869,877.37126 C 141.20308,846.55423 117.35123,865.09415 111.0338,871.6267 C 104.71636,878.15924 99.684109,883.12869 92.660453,890.07162 z "
       id="path2174"
       sodipodi:nodetypes="czzczczccccccczczzscczczczczczz" />
    <g
       id="g3189"
       transform="matrix(0.1179046,0,0,0.1179046,134.76926,822.58745)">
      <path
         id="path3156"
         d="M -417.14286,-333.3521 C -413.29847,-323.76393 -398.16074,-302.94141 -388.57143,-293.3521 C -378.55159,-283.33227 -375.14505,-271.07515 -371.42857,-256.20925 C -366.98956,-238.45319 -362.85714,-228.2787 -362.85714,-207.63782 C -362.85714,-186.16583 -363.5493,-170.19313 -371.42857,-150.49496 C -377.78472,-134.6046 -393.56602,-116.21646 -400,-107.63782 C -411.74229,-91.981432 -423.98114,-84.234387 -434.28571,-70.49496 C -441.62542,-60.70869 -455.0201,-46.903427 -457.14286,-44.780675 C -459.80111,-42.122426 -408.96482,-3.5487971 -405.71429,-1.9235317 C -394.71966,3.5737826 -375.33339,33.822431 -365.71429,46.647897 C -350.02842,67.562383 -339.67761,84.435531 -328.57143,106.6479 C -319.04218,125.70639 -314.28571,149.84741 -314.28571,172.36218 C -314.28571,188.55266 -314.28571,204.74313 -314.28571,220.93361 C -314.28571,240.9883 -318.34781,260.03913 -322.85714,278.07647 C -325.76588,289.71141 -342.48681,306.27757 -348.57143,312.36218 C -356.66018,320.45093 -363.22562,338.81342 -368.57143,349.50504 C -374.16948,360.70114 -381.43727,363.80815 -385.71429,372.36218"
         style="fill:none;fill-rule:evenodd;stroke:#000000;stroke-width:30;stroke-linecap:butt;stroke-linejoin:miter;stroke-miterlimit:4;stroke-dasharray:none;stroke-opacity:1" />
      <path
         id="path3158"
         d="M -217.14285,-336.20924 C -115.15698,-292.56138 -57.151251,46.83643 -74.285716,186.6479"
         style="fill:none;fill-rule:evenodd;stroke:#000000;stroke-width:30;stroke-linecap:butt;stroke-linejoin:miter;stroke-miterlimit:4;stroke-dasharray:none;stroke-opacity:1"
         sodipodi:nodetypes="cc" />
      <path
         id="path3160"
         d="M 257.14286,-327.63782 C 257.14286,-307.03812 257.14286,-265.9732 257.14286,-236.20925 C 257.14286,-208.5902 257.14286,-180.97115 257.14286,-153.3521 C 257.14286,-126.60973 254.28571,-101.78631 254.28571,-76.209246 C 254.28571,-47.637817 254.28571,-19.066389 254.28571,9.5050398 C 254.28571,31.388734 249.53298,47.554414 245.71429,66.647897 C 243.26506,78.894015 229.72853,92.905113 222.85714,106.6479 C 215.56663,121.22893 205.89884,135.12705 194.28571,140.93361 C 182.36205,146.89544 179.6007,152.36218 160,152.36218 C 154.28571,152.36218 148.57143,152.36218 142.85714,152.36218"
         style="fill:none;fill-rule:evenodd;stroke:#000000;stroke-width:30;stroke-linecap:butt;stroke-linejoin:miter;stroke-miterlimit:4;stroke-dasharray:none;stroke-opacity:1" />
      <path
         id="path3162"
         d="M 477.14286,-361.92353 C 465.98511,-361.92353 517.22737,-341.83902 545.71429,-313.3521 C 559.23128,-299.8351 575.8178,-291.82002 585.71429,-281.92353 C 599.97201,-267.66581 597.14286,-241.00532 597.14286,-221.92353 C 597.14286,-200.39266 599.23138,-174.672 591.42857,-159.06639 C 582.30323,-140.8157 572.74216,-126.53212 562.85714,-113.3521 C 552.04883,-98.941019 542.92597,-93.420929 531.42857,-81.923532 C 521.85726,-72.352222 553.28583,-65.780556 562.85714,-56.209246 C 578.91488,-40.151504 585.02604,-23.793574 597.14286,-7.6378174 C 608.93612,8.0865308 602.85714,41.831935 602.85714,60.933611 C 602.85714,84.392549 582.43443,102.62445 577.14286,123.79075 C 572.42549,142.66023 559.3704,161.56321 548.57143,172.36218 C 540.26918,180.66443 540.44671,185.82193 525.71429,189.50504"
         style="fill:none;fill-rule:evenodd;stroke:#000000;stroke-width:30;stroke-linecap:butt;stroke-linejoin:miter;stroke-miterlimit:4;stroke-dasharray:none;stroke-opacity:1" />
      <path
         id="path3164"
         d="M 802.85714,-373.3521 C 786.02127,-356.51623 843.16412,-347.33084 860,-330.49496 C 874.63491,-315.86005 874.28571,-302.30063 874.28571,-281.92353 C 874.28571,-256.49236 874.71196,-230.11091 860,-210.49496 C 845.78175,-191.53729 827.7692,-179.06639 802.85714,-179.06639 C 780.43877,-179.06639 757.1383,-176.20925 734.28571,-176.20925 C 701.03377,-176.20925 693.83784,-176.20925 731.42857,-176.20925 C 737.14286,-176.20925 742.85714,-176.20925 748.57143,-176.20925 C 770.84647,-176.20925 779.82311,-176.29769 797.14286,-167.63782 C 813.97332,-159.22259 820,-127.24117 820,-110.49496 C 820,-87.648554 821.17155,-67.123774 811.42857,-47.637817 C 802.7927,-30.366082 787.43677,-15.211295 768.57143,-10.49496 C 748.75901,-5.5418562 725.87776,-13.352103 705.71429,-13.352103 C 703.73981,-13.352103 744.71115,-10.49496 791.42857,-10.49496 C 822.70744,-10.49496 842.0938,-0.87663282 868.57143,12.362183 C 884.53281,20.342872 902.85714,41.080718 902.85714,58.076468 C 902.85714,73.967034 905.71429,92.487105 905.71429,109.50504 C 905.71429,127.46459 895.93332,136.42886 885.71429,146.6479 C 877.48157,154.88061 862.12288,164.76977 854.28571,175.21933 C 851.27867,179.22872 827.19411,179.84937 822.85714,180.93361"
         style="fill:none;fill-rule:evenodd;stroke:#000000;stroke-width:30;stroke-linecap:butt;stroke-linejoin:miter;stroke-miterlimit:4;stroke-dasharray:none;stroke-opacity:1" />
    </g>
    <g
       id="g3180"
       style="fill:#000000;fill-opacity:1"
       transform="matrix(0.1179046,0,0,0.1179046,134.76926,822.58745)">
      <path
         id="path3166"
         d="M -691.42857,49.50504 C -705.57648,68.368915 -656.67347,17.607079 -640,0.93361119 C -618.96224,-20.104149 -606.64972,-25.76694 -594.28571,-50.49496 C -582.97771,-73.11097 -577.14286,-92.040412 -577.14286,-116.20925 C -577.14286,-136.4388 -580.16991,-144.95058 -591.42857,-156.20925 C -604.93911,-169.71979 -613.3159,-173.3521 -631.42857,-173.3521 C -649.23753,-173.3521 -666.3645,-150.58039 -677.14286,-136.20925 C -691.19966,-117.46684 -707.07874,-102.9614 -722.85714,-81.923532 C -725.71429,-78.114008 -728.57143,-74.304484 -731.42857,-70.49496 C -733.98408,-67.087619 -735.2381,-62.875913 -737.14286,-59.066389 C -747.89194,-37.568222 -763.91934,-18.248437 -777.14286,3.790754 C -780,8.5526588 -782.85714,13.314564 -785.71429,18.076468 C -788.57143,22.838373 -791.42857,27.600278 -794.28571,32.362183 C -796.47704,36.014397 -798.09524,39.98123 -800,43.790754 C -810.60594,65.002637 -823.10095,85.828838 -831.42857,106.6479 C -838.7503,124.95223 -837.14286,148.33159 -837.14286,169.50504 C -837.14286,191.56058 -830.03266,206.51727 -825.71429,223.79075 C -821.64802,240.05581 -797.02438,260.93361 -780,260.93361 C -750.53871,260.93361 -720.1586,262.86481 -691.42857,258.07647 C -662.68212,253.28539 -633.75503,240.40292 -614.28571,220.93361 C -610.47619,217.12409 -606.66667,213.31456 -602.85714,209.50504 C -588.108,194.7559 -591.42857,179.94557 -591.42857,158.07647 C -591.42857,135.6378 -598.47872,126.32621 -608.57143,109.50504 C -619.17991,91.824242 -627.2548,74.449066 -642.85714,66.647897 C -653.01393,61.569504 -652.73417,46.647897 -674.28571,46.647897 C -680.07882,46.647897 -685.71429,48.552659 -691.42857,49.50504 z "
         style="fill:#000000;fill-opacity:1;fill-rule:evenodd;stroke:#000000;stroke-width:1px;stroke-linecap:butt;stroke-linejoin:miter;stroke-opacity:1" />
      <path
         id="path3168"
         d="M -254.28571,-4.7806745 C -259.26033,-4.7806745 -249.2864,-44.783409 -257.14286,-76.209246 C -262.42998,-97.357746 -271.33781,-117.993 -282.85714,-133.3521 C -291.33573,-144.65689 -296.86917,-144.78067 -314.28571,-144.78067 C -327.71548,-144.78067 -328.57143,-95.968002 -328.57143,-87.637817 C -328.57143,-62.875913 -328.57143,-38.114008 -328.57143,-13.352103 C -328.57143,2.8383731 -328.57143,19.028849 -328.57143,35.219325 C -328.57143,54.015619 -319.6222,70.260638 -311.42857,86.647897 C -303.08737,103.3303 -284.92803,100.93361 -268.57143,100.93361 C -250.45273,100.93361 -245.8821,81.604871 -242.85714,69.50504 C -239.17013,54.757003 -240,39.432509 -240,23.790754 C -240,6.5421176 -235.98287,2.5404633 -254.28571,-4.7806745 z "
         style="fill:#000000;fill-opacity:1;fill-rule:evenodd;stroke:#000000;stroke-width:1px;stroke-linecap:butt;stroke-linejoin:miter;stroke-opacity:1" />
      <path
         id="path3170"
         d="M 385.71429,-76.209246 C 385.71429,-80.712672 413.01021,-107.8419 425.71429,-124.78067 C 434.52274,-136.52528 434.28571,-147.88411 434.28571,-164.78067 C 434.28571,-173.89574 417.33141,-187.44926 411.42857,-193.3521 C 395.64809,-209.13258 375.23903,-183.83016 371.42857,-176.20925 C 360.16962,-153.69134 345.93551,-142.80843 340,-119.06639 C 334.69279,-97.837547 316.3115,-68.832243 305.71429,-47.637817 C 297.04083,-30.290913 291.08358,-12.662112 282.85714,3.790754 C 275.84882,17.807401 280.74923,36.717784 285.71429,46.647897 C 289.17798,53.575284 321.16688,49.50504 328.57143,49.50504 C 348.5107,49.50504 360.18521,40.748403 371.42857,29.50504 C 386.36329,14.570325 396.91992,10.39677 402.85714,-13.352103 C 406.11611,-26.387965 402.21871,-47.334422 400,-56.209246 C 398.477,-62.301261 386.84328,-74.797999 385.71429,-76.209246 z "
         style="fill:#000000;fill-opacity:1;fill-rule:evenodd;stroke:#000000;stroke-width:1px;stroke-linecap:butt;stroke-linejoin:miter;stroke-opacity:1" />
      <path
         id="path3172"
         d="M 948.57143,-127.63782 C 947.69767,-131.13285 986.24659,-122.77089 1017.1429,-130.49496 C 1033.7233,-134.64008 1017.6109,-180.98749 1014.2857,-187.63782 C 1004.5903,-207.02864 993.79782,-231.47074 985.71429,-247.63782 C 977.03211,-265.00216 948.96449,-253.54864 942.85714,-250.49496 C 923.0178,-240.57529 925.71429,-212.34277 925.71429,-193.3521 C 925.71429,-172.30589 928.57143,-156.84012 928.57143,-139.06639 C 928.57143,-123.50836 931.27176,-127.63782 948.57143,-127.63782 z "
         style="fill:#000000;fill-opacity:1;fill-rule:evenodd;stroke:#000000;stroke-width:1px;stroke-linecap:butt;stroke-linejoin:miter;stroke-opacity:1" />
      <path
         id="path3174"
         d="M 411.42857,546.6479 C 411.42857,555.94297 424.45262,512.02837 442.85714,475.21933 C 452.05961,456.8144 454.48683,446.84901 442.85714,435.21933 C 433.30867,425.67086 401.20762,464.08536 397.14286,469.50504 C 384.29794,486.6316 374.23631,498.12588 360,512.36218 C 348.41463,523.94755 326.66623,552.36219 360,552.36219"
         style="fill:#000000;fill-opacity:1;fill-rule:evenodd;stroke:#000000;stroke-width:1px;stroke-linecap:butt;stroke-linejoin:miter;stroke-opacity:1"
         sodipodi:nodetypes="csssss" />
      <path
         id="path3176"
         d="M 680,540.93361 C 701.80093,540.93361 728.60149,546.61783 748.57143,526.6479 C 767.27666,507.94267 777.27465,489.24146 788.57143,466.6479 C 797.86841,448.05394 806.49308,435.99812 791.42857,420.93361 C 773.6632,403.16824 749.13604,420.369 737.14286,432.36218 C 722.62452,446.88052 714.58944,471.00483 702.85714,486.6479 C 691.94755,501.19402 684.35898,513.71749 674.28571,523.79075 C 670.02654,528.04993 678.09524,535.21933 680,540.93361 z "
         style="fill:#000000;fill-opacity:1;fill-rule:evenodd;stroke:#000000;stroke-width:1px;stroke-linecap:butt;stroke-linejoin:miter;stroke-opacity:1" />
      <path
         id="path3178"
         d="M 1008.5714,543.79075 C 993.75586,558.60632 1050.4762,543.79075 1071.4286,543.79075 C 1089.3176,543.79075 1101.3503,524.10395 1105.7143,506.6479 C 1111.1566,484.87869 1117.8754,463.71786 1122.8571,443.79075 C 1123.8095,439.98123 1124.7619,436.17171 1125.7143,432.36218 C 1131.2845,410.08119 1101.8746,419.05901 1094.2857,426.6479 C 1074.9758,445.95782 1069.4547,456.30985 1057.1429,480.93361 C 1048.2008,498.81765 1032.3411,510.53719 1022.8571,529.50504 C 1019.8454,535.52843 1012.0362,538.0161 1008.5714,543.79075 z "
         style="fill:#000000;fill-opacity:1;fill-rule:evenodd;stroke:#000000;stroke-width:1px;stroke-linecap:butt;stroke-linejoin:miter;stroke-opacity:1" />
    </g>
  </g>
</svg>
