<?xml version="1.0" encoding="UTF-8" standalone="no"?>
<!-- Created with Inkscape (http://www.inkscape.org/) -->
<svg
   xmlns:dc="http://purl.org/dc/elements/1.1/"
   xmlns:cc="http://web.resource.org/cc/"
   xmlns:rdf="http://www.w3.org/1999/02/22-rdf-syntax-ns#"
   xmlns:svg="http://www.w3.org/2000/svg"
   xmlns="http://www.w3.org/2000/svg"
   xmlns:xlink="http://www.w3.org/1999/xlink"
   xmlns:sodipodi="http://sodipodi.sourceforge.net/DTD/sodipodi-0.dtd"
   xmlns:inkscape="http://www.inkscape.org/namespaces/inkscape"
   width="210mm"
   height="297mm"
   id="svg2"
   sodipodi:version="0.32"
   inkscape:version="0.45.1"
   inkscape:output_extension="org.inkscape.output.svg.inkscape"
   sodipodi:docname="Title.svg"
   sodipodi:docbase="C:\Dokumente und Einstellungen\Bernd\Eigene Dateien\Bombermaaan\repository_trunk\images">
  <defs
     id="defs4">
    <linearGradient
       id="linearGradient4185">
      <stop
         style="stop-color:#ff3d00;stop-opacity:1;"
         offset="0"
         id="stop4187" />
      <stop
         id="stop5166"
         offset="0.61946905"
         style="stop-color:#fff903;stop-opacity:1;" />
      <stop
         style="stop-color:#ff1702;stop-opacity:1;"
         offset="1"
         id="stop4189" />
    </linearGradient>
    <linearGradient
       inkscape:collect="always"
       xlink:href="#linearGradient4185"
       id="linearGradient5182"
       x1="-1083.2549"
       y1="56.34597"
       x2="1303.5455"
       y2="56.34597"
       gradientUnits="userSpaceOnUse"
       spreadMethod="pad"
       gradientTransform="matrix(0.2111706,0,0,0.2111706,296.46338,259.1564)" />
    <linearGradient
       inkscape:collect="always"
       xlink:href="#linearGradient4185"
       id="linearGradient5242"
       x1="-459.8205"
       y1="570.98633"
       x2="1803.5107"
       y2="570.98633"
       gradientUnits="userSpaceOnUse"
       gradientTransform="matrix(0.2111706,0,0,0.2111706,298.27342,259.1564)" />
  </defs>
  <sodipodi:namedview
     id="base"
     pagecolor="#ffffff"
     bordercolor="#666666"
     borderopacity="1.0"
     inkscape:pageopacity="0.0"
     inkscape:pageshadow="2"
     inkscape:zoom="0.35"
     inkscape:cx="350"
     inkscape:cy="569.168"
     inkscape:document-units="px"
     inkscape:current-layer="layer1"
     inkscape:window-width="1280"
     inkscape:window-height="952"
     inkscape:window-x="0"
     inkscape:window-y="45" />
  <metadata
     id="metadata7">
    <rdf:RDF>
      <cc:Work
         rdf:about="">
        <dc:format>image/svg+xml</dc:format>
        <dc:type
           rdf:resource="http://purl.org/dc/dcmitype/StillImage" />
      </cc:Work>
    </rdf:RDF>
  </metadata>
  <g
     inkscape:label="Ebene 1"
     inkscape:groupmode="layer"
     id="layer1">
    <path
       style="opacity:1;fill:url(#linearGradient5182);fill-opacity:1;fill-rule:evenodd;stroke:#000000;stroke-width:6.33511877;stroke-linecap:butt;stroke-linejoin:miter;stroke-miterlimit:4;stroke-dasharray:none;stroke-opacity:1"
       d="M 278.36117,171.86846 C 261.48511,170.36971 255.59266,181.05386 251.58113,187.71525 C 234.36708,177.80583 221.31996,184.01653 207.53634,188.80192 C 188.67313,173.82507 150.79823,174.72431 134.08621,187.81514 C 117.37417,200.90596 112.03663,216.45657 103.23854,237.61643 C 94.44053,258.77628 85.037697,287.64252 73.83012,311.84725 C 62.622623,336.05198 83.980232,358.76552 106.86107,366.8206 C 129.74191,374.87569 147.64407,375.60656 169.9792,366.88529 C 192.31433,358.16402 202.67576,346.35914 220.90295,326.55518 C 251.51617,336.51872 269.73215,319.68393 277.99683,301.3821 C 290.80863,288.33653 297.12314,265.39691 291.64479,247.39083 C 302.1341,255.88839 304.58805,252.46716 311.77892,246.69734 C 311.25877,271.18972 306.48923,289.98647 332.84651,291.46949 C 340.44181,311.0214 390.99762,313.1351 409.67586,296.95329 C 433.1747,301.31219 454.17112,303.84086 477.62264,296.11293 C 490.28035,309.63947 502.95648,305.96588 506.73348,302.2418 C 509.4827,299.53112 518.39535,296.36116 511.07468,269.03269 C 524.29527,279.27687 549.61321,299.92961 560.11046,286.65509 C 570.37147,273.67932 561.49603,256.5734 536.67054,242.76716 C 574.82714,221.36368 545.72362,173.17784 520.86161,169.09379 C 495.9996,165.00974 475.27349,173.16268 468.23623,183.67969 C 447.07405,181.1286 414.42926,178.70424 406.18141,189.88008 C 384.90667,170.85879 353.42193,181.49367 348.7481,188.36694 C 316.27359,151.48493 306.74328,197.51109 304.28616,211.01455 C 301.84443,198.64341 294.91159,170.84223 278.36117,171.86846 z "
       id="path2170"
       sodipodi:nodetypes="ccczzzzzccccccczczczccccc" />
    <path
       style="opacity:1;fill:url(#linearGradient5242);fill-opacity:1;fill-rule:evenodd;stroke:#000000;stroke-width:6.33511877;stroke-linecap:butt;stroke-linejoin:miter;stroke-miterlimit:4;stroke-dasharray:none;stroke-opacity:1"
       d="M 222.85535,380.02249 C 210.27578,392.45748 197.87313,425.22871 208.15609,433.36911 C 218.72599,441.73665 238.70805,438.779 247.93124,428.85094 C 257.15444,418.92287 267.91126,406.98972 277.14049,383.90155 C 276.11286,405.46088 270.4989,414.87678 279.51115,423.66096 C 286.66348,430.6323 300.0806,409.2505 313.53362,391.19504 C 299.23279,441.92087 325.79479,442.42414 336.76424,431.77796 C 341.68076,427.00634 347.63373,416.57656 353.79084,406.32256 C 365.7512,406.32686 369.07712,407.3362 380.32243,406.27912 C 362.00384,451.67958 399.18952,438.23616 412.61815,426.87474 C 420.62912,420.09698 423.74391,409.63033 426.75059,405.93705 C 428.78396,403.43936 442.23143,405.07318 452.88702,403.76151 C 433.19851,452.61672 487.81419,450.27516 498.89567,404.00884 C 507.01124,404.14528 509.33275,405.38681 522.76316,404.13134 C 514.20623,422.28287 520.94154,433.53303 528.4445,438.13103 C 544.13944,447.74929 562.23837,417.23057 573.13206,402.4826 C 571.35555,428.15872 577.04231,443.29464 601.39077,441.47703 C 625.7766,439.65664 627.72381,389.76941 653.77498,386.00494 C 679.82615,382.24048 688.02574,340.76517 670.01491,331.83816 C 634.23397,314.10344 604.56052,374.05286 602.40585,384.13079 C 605.7741,331.56166 590.84825,312.94621 556.95631,371.95553 C 572.32816,323.02947 558.52787,318.49686 542.21979,317.66829 C 525.91171,316.83972 501.42731,353.12264 491.99301,373.10152 C 496.43564,355.06968 509.22899,318.79222 482.04616,317.80638 C 454.26,316.82054 426.8733,355.61703 418.05893,366.30905 C 417.08804,356.48736 424.98739,327.24157 406.65971,319.31457 C 388.33203,311.38756 364.69317,352.6878 351.06005,365.72409 C 348.89049,328.07943 350.54301,331.06505 336.83576,328.6278 C 323.12853,326.19055 308.76901,343.63371 305.09623,357.27578 C 309.7966,302.0816 267.07725,335.28712 255.76254,346.9871 C 244.44782,358.68708 235.43492,367.5875 222.85535,380.02249 z "
       id="path2174"
       sodipodi:nodetypes="czzczczccccccczczzscczczczczczz" />
    <g
       id="g3189"
       transform="matrix(0.2111706,0,0,0.2111706,298.27343,259.1564)">
      <path
         id="path3156"
         d="M -417.14286,-333.3521 C -413.29847,-323.76393 -398.16074,-302.94141 -388.57143,-293.3521 C -378.55159,-283.33227 -375.14505,-271.07515 -371.42857,-256.20925 C -366.98956,-238.45319 -362.85714,-228.2787 -362.85714,-207.63782 C -362.85714,-186.16583 -363.5493,-170.19313 -371.42857,-150.49496 C -377.78472,-134.6046 -393.56602,-116.21646 -400,-107.63782 C -411.74229,-91.981432 -423.98114,-84.234387 -434.28571,-70.49496 C -441.62542,-60.70869 -455.0201,-46.903427 -457.14286,-44.780675 C -459.80111,-42.122426 -408.96482,-3.5487971 -405.71429,-1.9235317 C -394.71966,3.5737826 -375.33339,33.822431 -365.71429,46.647897 C -350.02842,67.562383 -339.67761,84.435531 -328.57143,106.6479 C -319.04218,125.70639 -314.28571,149.84741 -314.28571,172.36218 C -314.28571,188.55266 -314.28571,204.74313 -314.28571,220.93361 C -314.28571,240.9883 -318.34781,260.03913 -322.85714,278.07647 C -325.76588,289.71141 -342.48681,306.27757 -348.57143,312.36218 C -356.66018,320.45093 -363.22562,338.81342 -368.57143,349.50504 C -374.16948,360.70114 -381.43727,363.80815 -385.71429,372.36218"
         style="fill:none;fill-rule:evenodd;stroke:#000000;stroke-width:30;stroke-linecap:butt;stroke-linejoin:miter;stroke-miterlimit:4;stroke-dasharray:none;stroke-opacity:1" />
      <path
         id="path3158"
         d="M -217.14285,-336.20924 C -115.15698,-292.56138 -57.151251,46.83643 -74.285716,186.6479"
         style="fill:none;fill-rule:evenodd;stroke:#000000;stroke-width:30;stroke-linecap:butt;stroke-linejoin:miter;stroke-miterlimit:4;stroke-dasharray:none;stroke-opacity:1"
         sodipodi:nodetypes="cc" />
      <path
         id="path3160"
         d="M 257.14286,-327.63782 C 257.14286,-307.03812 257.14286,-265.9732 257.14286,-236.20925 C 257.14286,-208.5902 257.14286,-180.97115 257.14286,-153.3521 C 257.14286,-126.60973 254.28571,-101.78631 254.28571,-76.209246 C 254.28571,-47.637817 254.28571,-19.066389 254.28571,9.5050398 C 254.28571,31.388734 249.53298,47.554414 245.71429,66.647897 C 243.26506,78.894015 229.72853,92.905113 222.85714,106.6479 C 215.56663,121.22893 205.89884,135.12705 194.28571,140.93361 C 182.36205,146.89544 179.6007,152.36218 160,152.36218 C 154.28571,152.36218 148.57143,152.36218 142.85714,152.36218"
         style="fill:none;fill-rule:evenodd;stroke:#000000;stroke-width:30;stroke-linecap:butt;stroke-linejoin:miter;stroke-miterlimit:4;stroke-dasharray:none;stroke-opacity:1" />
      <path
         id="path3162"
         d="M 477.14286,-361.92353 C 465.98511,-361.92353 517.22737,-341.83902 545.71429,-313.3521 C 559.23128,-299.8351 575.8178,-291.82002 585.71429,-281.92353 C 599.97201,-267.66581 597.14286,-241.00532 597.14286,-221.92353 C 597.14286,-200.39266 599.23138,-174.672 591.42857,-159.06639 C 582.30323,-140.8157 572.74216,-126.53212 562.85714,-113.3521 C 552.04883,-98.941019 542.92597,-93.420929 531.42857,-81.923532 C 521.85726,-72.352222 553.28583,-65.780556 562.85714,-56.209246 C 578.91488,-40.151504 585.02604,-23.793574 597.14286,-7.6378174 C 608.93612,8.0865308 602.85714,41.831935 602.85714,60.933611 C 602.85714,84.392549 582.43443,102.62445 577.14286,123.79075 C 572.42549,142.66023 559.3704,161.56321 548.57143,172.36218 C 540.26918,180.66443 540.44671,185.82193 525.71429,189.50504"
         style="fill:none;fill-rule:evenodd;stroke:#000000;stroke-width:30;stroke-linecap:butt;stroke-linejoin:miter;stroke-miterlimit:4;stroke-dasharray:none;stroke-opacity:1" />
      <path
         id="path3164"
         d="M 802.85714,-373.3521 C 786.02127,-356.51623 843.16412,-347.33084 860,-330.49496 C 874.63491,-315.86005 874.28571,-302.30063 874.28571,-281.92353 C 874.28571,-256.49236 874.71196,-230.11091 860,-210.49496 C 845.78175,-191.53729 827.7692,-179.06639 802.85714,-179.06639 C 780.43877,-179.06639 757.1383,-176.20925 734.28571,-176.20925 C 701.03377,-176.20925 693.83784,-176.20925 731.42857,-176.20925 C 737.14286,-176.20925 742.85714,-176.20925 748.57143,-176.20925 C 770.84647,-176.20925 779.82311,-176.29769 797.14286,-167.63782 C 813.97332,-159.22259 820,-127.24117 820,-110.49496 C 820,-87.648554 821.17155,-67.123774 811.42857,-47.637817 C 802.7927,-30.366082 787.43677,-15.211295 768.57143,-10.49496 C 748.75901,-5.5418562 725.87776,-13.352103 705.71429,-13.352103 C 703.73981,-13.352103 744.71115,-10.49496 791.42857,-10.49496 C 822.70744,-10.49496 842.0938,-0.87663282 868.57143,12.362183 C 884.53281,20.342872 902.85714,41.080718 902.85714,58.076468 C 902.85714,73.967034 905.71429,92.487105 905.71429,109.50504 C 905.71429,127.46459 895.93332,136.42886 885.71429,146.6479 C 877.48157,154.88061 862.12288,164.76977 854.28571,175.21933 C 851.27867,179.22872 827.19411,179.84937 822.85714,180.93361"
         style="fill:none;fill-rule:evenodd;stroke:#000000;stroke-width:30;stroke-linecap:butt;stroke-linejoin:miter;stroke-miterlimit:4;stroke-dasharray:none;stroke-opacity:1" />
    </g>
    <g
       id="g3180"
       style="fill:#000000;fill-opacity:1"
       transform="matrix(0.2111706,0,0,0.2111706,298.27343,259.1564)">
      <path
         id="path3166"
         d="M -691.42857,49.50504 C -705.57648,68.368915 -656.67347,17.607079 -640,0.93361119 C -618.96224,-20.104149 -606.64972,-25.76694 -594.28571,-50.49496 C -582.97771,-73.11097 -577.14286,-92.040412 -577.14286,-116.20925 C -577.14286,-136.4388 -580.16991,-144.95058 -591.42857,-156.20925 C -604.93911,-169.71979 -613.3159,-173.3521 -631.42857,-173.3521 C -649.23753,-173.3521 -666.3645,-150.58039 -677.14286,-136.20925 C -691.19966,-117.46684 -707.07874,-102.9614 -722.85714,-81.923532 C -725.71429,-78.114008 -728.57143,-74.304484 -731.42857,-70.49496 C -733.98408,-67.087619 -735.2381,-62.875913 -737.14286,-59.066389 C -747.89194,-37.568222 -763.91934,-18.248437 -777.14286,3.790754 C -780,8.5526588 -782.85714,13.314564 -785.71429,18.076468 C -788.57143,22.838373 -791.42857,27.600278 -794.28571,32.362183 C -796.47704,36.014397 -798.09524,39.98123 -800,43.790754 C -810.60594,65.002637 -823.10095,85.828838 -831.42857,106.6479 C -838.7503,124.95223 -837.14286,148.33159 -837.14286,169.50504 C -837.14286,191.56058 -830.03266,206.51727 -825.71429,223.79075 C -821.64802,240.05581 -797.02438,260.93361 -780,260.93361 C -750.53871,260.93361 -720.1586,262.86481 -691.42857,258.07647 C -662.68212,253.28539 -633.75503,240.40292 -614.28571,220.93361 C -610.47619,217.12409 -606.66667,213.31456 -602.85714,209.50504 C -588.108,194.7559 -591.42857,179.94557 -591.42857,158.07647 C -591.42857,135.6378 -598.47872,126.32621 -608.57143,109.50504 C -619.17991,91.824242 -627.2548,74.449066 -642.85714,66.647897 C -653.01393,61.569504 -652.73417,46.647897 -674.28571,46.647897 C -680.07882,46.647897 -685.71429,48.552659 -691.42857,49.50504 z "
         style="fill:#000000;fill-opacity:1;fill-rule:evenodd;stroke:#000000;stroke-width:1px;stroke-linecap:butt;stroke-linejoin:miter;stroke-opacity:1" />
      <path
         id="path3168"
         d="M -254.28571,-4.7806745 C -259.26033,-4.7806745 -249.2864,-44.783409 -257.14286,-76.209246 C -262.42998,-97.357746 -271.33781,-117.993 -282.85714,-133.3521 C -291.33573,-144.65689 -296.86917,-144.78067 -314.28571,-144.78067 C -327.71548,-144.78067 -328.57143,-95.968002 -328.57143,-87.637817 C -328.57143,-62.875913 -328.57143,-38.114008 -328.57143,-13.352103 C -328.57143,2.8383731 -328.57143,19.028849 -328.57143,35.219325 C -328.57143,54.015619 -319.6222,70.260638 -311.42857,86.647897 C -303.08737,103.3303 -284.92803,100.93361 -268.57143,100.93361 C -250.45273,100.93361 -245.8821,81.604871 -242.85714,69.50504 C -239.17013,54.757003 -240,39.432509 -240,23.790754 C -240,6.5421176 -235.98287,2.5404633 -254.28571,-4.7806745 z "
         style="fill:#000000;fill-opacity:1;fill-rule:evenodd;stroke:#000000;stroke-width:1px;stroke-linecap:butt;stroke-linejoin:miter;stroke-opacity:1" />
      <path
         id="path3170"
         d="M 385.71429,-76.209246 C 385.71429,-80.712672 413.01021,-107.8419 425.71429,-124.78067 C 434.52274,-136.52528 434.28571,-147.88411 434.28571,-164.78067 C 434.28571,-173.89574 417.33141,-187.44926 411.42857,-193.3521 C 395.64809,-209.13258 375.23903,-183.83016 371.42857,-176.20925 C 360.16962,-153.69134 345.93551,-142.80843 340,-119.06639 C 334.69279,-97.837547 316.3115,-68.832243 305.71429,-47.637817 C 297.04083,-30.290913 291.08358,-12.662112 282.85714,3.790754 C 275.84882,17.807401 280.74923,36.717784 285.71429,46.647897 C 289.17798,53.575284 321.16688,49.50504 328.57143,49.50504 C 348.5107,49.50504 360.18521,40.748403 371.42857,29.50504 C 386.36329,14.570325 396.91992,10.39677 402.85714,-13.352103 C 406.11611,-26.387965 402.21871,-47.334422 400,-56.209246 C 398.477,-62.301261 386.84328,-74.797999 385.71429,-76.209246 z "
         style="fill:#000000;fill-opacity:1;fill-rule:evenodd;stroke:#000000;stroke-width:1px;stroke-linecap:butt;stroke-linejoin:miter;stroke-opacity:1" />
      <path
         id="path3172"
         d="M 948.57143,-127.63782 C 947.69767,-131.13285 986.24659,-122.77089 1017.1429,-130.49496 C 1033.7233,-134.64008 1017.6109,-180.98749 1014.2857,-187.63782 C 1004.5903,-207.02864 993.79782,-231.47074 985.71429,-247.63782 C 977.03211,-265.00216 948.96449,-253.54864 942.85714,-250.49496 C 923.0178,-240.57529 925.71429,-212.34277 925.71429,-193.3521 C 925.71429,-172.30589 928.57143,-156.84012 928.57143,-139.06639 C 928.57143,-123.50836 931.27176,-127.63782 948.57143,-127.63782 z "
         style="fill:#000000;fill-opacity:1;fill-rule:evenodd;stroke:#000000;stroke-width:1px;stroke-linecap:butt;stroke-linejoin:miter;stroke-opacity:1" />
      <path
         id="path3174"
         d="M 411.42857,546.6479 C 411.42857,555.94297 424.45262,512.02837 442.85714,475.21933 C 452.05961,456.8144 454.48683,446.84901 442.85714,435.21933 C 433.30867,425.67086 401.20762,464.08536 397.14286,469.50504 C 384.29794,486.6316 374.23631,498.12588 360,512.36218 C 348.41463,523.94755 326.66623,552.36219 360,552.36219"
         style="fill:#000000;fill-opacity:1;fill-rule:evenodd;stroke:#000000;stroke-width:1px;stroke-linecap:butt;stroke-linejoin:miter;stroke-opacity:1"
         sodipodi:nodetypes="csssss" />
      <path
         id="path3176"
         d="M 680,540.93361 C 701.80093,540.93361 728.60149,546.61783 748.57143,526.6479 C 767.27666,507.94267 777.27465,489.24146 788.57143,466.6479 C 797.86841,448.05394 806.49308,435.99812 791.42857,420.93361 C 773.6632,403.16824 749.13604,420.369 737.14286,432.36218 C 722.62452,446.88052 714.58944,471.00483 702.85714,486.6479 C 691.94755,501.19402 684.35898,513.71749 674.28571,523.79075 C 670.02654,528.04993 678.09524,535.21933 680,540.93361 z "
         style="fill:#000000;fill-opacity:1;fill-rule:evenodd;stroke:#000000;stroke-width:1px;stroke-linecap:butt;stroke-linejoin:miter;stroke-opacity:1" />
      <path
         id="path3178"
         d="M 1008.5714,543.79075 C 993.75586,558.60632 1050.4762,543.79075 1071.4286,543.79075 C 1089.3176,543.79075 1101.3503,524.10395 1105.7143,506.6479 C 1111.1566,484.87869 1117.8754,463.71786 1122.8571,443.79075 C 1123.8095,439.98123 1124.7619,436.17171 1125.7143,432.36218 C 1131.2845,410.08119 1101.8746,419.05901 1094.2857,426.6479 C 1074.9758,445.95782 1069.4547,456.30985 1057.1429,480.93361 C 1048.2008,498.81765 1032.3411,510.53719 1022.8571,529.50504 C 1019.8454,535.52843 1012.0362,538.0161 1008.5714,543.79075 z "
         style="fill:#000000;fill-opacity:1;fill-rule:evenodd;stroke:#000000;stroke-width:1px;stroke-linecap:butt;stroke-linejoin:miter;stroke-opacity:1" />
    </g>
  </g>
</svg>
